<svg width="70" height="70" viewBox="0 0 70 70" fill="none" xmlns="http://www.w3.org/2000/svg">
<g clip-path="url(#clip0_1908_393)">
<path d="M13.6485 60.9023L8.45459 2.625H65.5456L60.3448 60.8931L36.9654 67.375L13.6485 60.9023Z" fill="#1572B6"/>
<path d="M37 62.4217L55.8931 57.1839L60.3377 7.39111H37V62.4217Z" fill="#33A9DC"/>
<path d="M37 28.5041H46.4581L47.1102 21.185H37V14.0371H54.9219L54.7508 15.9542L52.9956 35.652H37V28.5041Z" fill="white"/>
<path d="M37.0441 47.0668L37.0117 47.076L29.0521 44.9254L28.5434 39.2251H21.3677L22.369 50.4477L37.0094 54.513L37.0441 54.5038V47.0668Z" fill="#EBEBEB"/>
<path d="M45.85 35.3491L44.9897 44.9206L37.0186 47.0712V54.5082L51.6706 50.4474L51.7792 49.2403L53.0211 35.3491H45.85Z" fill="white"/>
<path d="M37.0253 14.0371V21.185H19.7602L19.6168 19.5779L19.2908 15.9542L19.1196 14.0371H37.0253ZM36.9999 28.5041V35.652H29.1397L28.9963 34.0449L28.6726 30.4212L28.5014 28.5041H36.9999Z" fill="#EBEBEB"/>
</g>
<defs>
<clipPath id="clip0_1908_393">
<rect width="70" height="70" fill="white"/>
</clipPath>
</defs>
</svg>
