<svg width="70" height="70" viewBox="0 0 70 70" fill="none" xmlns="http://www.w3.org/2000/svg">
<g clip-path="url(#clip0_1908_365)">
<path d="M53.5938 0H16.4062C7.34533 0 0 7.34533 0 16.4062V53.5938C0 62.6547 7.34533 70 16.4062 70H53.5938C62.6547 70 70 62.6547 70 53.5938V16.4062C70 7.34533 62.6547 0 53.5938 0Z" fill="#F4F2ED"/>
<mask id="mask0_1908_365" style="mask-type:luminance" maskUnits="userSpaceOnUse" x="16" y="7" width="38" height="56">
<path d="M16.6797 7.65625H53.1453V62.3438H16.6797V7.65625Z" fill="white"/>
</mask>
<g mask="url(#mask0_1908_365)">
<path d="M25.7979 62.3435C30.8291 62.3435 34.9124 58.2603 34.9124 53.229V44.1143H25.7979C20.7666 44.1143 16.6831 48.1978 16.6831 53.229C16.6831 58.2603 20.7666 62.3435 25.7979 62.3435Z" fill="#0ACF83"/>
<path d="M16.6831 35.0002C16.6831 29.969 20.7666 25.8857 25.7979 25.8857H34.9124V44.1147H25.7979C20.7666 44.1147 16.6831 40.0315 16.6831 35.0002Z" fill="#A259FF"/>
<path d="M16.6831 16.7707C16.6831 11.7395 20.7666 7.65625 25.7979 7.65625H34.9124V25.8855H25.7979C20.7666 25.8855 16.6831 21.802 16.6831 16.7707Z" fill="#F24E1E"/>
<path d="M34.9126 7.65625H44.0271C49.0583 7.65625 53.1419 11.7395 53.1419 16.7707C53.1419 21.802 49.0583 25.8855 44.0271 25.8855H34.9126V7.65625Z" fill="#FF7262"/>
<path d="M53.1419 35.0002C53.1419 40.0315 49.0583 44.1147 44.0271 44.1147C38.9958 44.1147 34.9126 40.0315 34.9126 35.0002C34.9126 29.969 38.9958 25.8857 44.0271 25.8857C49.0583 25.8857 53.1419 29.969 53.1419 35.0002Z" fill="#1ABCFE"/>
</g>
</g>
<defs>
<clipPath id="clip0_1908_365">
<rect width="70" height="70" fill="white"/>
</clipPath>
</defs>
</svg>
