<svg width="288" height="168" viewBox="0 0 288 168" fill="none" xmlns="http://www.w3.org/2000/svg">
<rect width="287.612" height="167.672" rx="4" fill="white"/>
<path d="M0 4C0 1.79086 1.79086 0 4 0H283.612C285.821 0 287.612 1.79086 287.612 4V12.2388H0V4Z" fill="#192353"/>
<circle cx="7.34327" cy="6.11964" r="2.44776" fill="#82A7FF"/>
<circle cx="14.6865" cy="6.11964" r="2.44776" fill="#AAC3FF"/>
<circle cx="22.0298" cy="6.11964" r="2.44776" fill="#D9E4FF"/>
<path d="M31 113C31 110.791 32.7909 109 35 109H253C255.209 109 257 110.791 257 113V168H31V113Z" fill="#3772FF"/>
<path d="M31 30C31 27.7909 32.7909 26 35 26H86C88.2091 26 90 27.7909 90 30V81C90 83.2091 88.2091 85 86 85H35C32.7909 85 31 83.2091 31 81V30Z" fill="#FF8811"/>
<path d="M101 30C101 27.7909 102.791 26 105 26H156C158.209 26 160 27.7909 160 30V30C160 32.2091 158.209 34 156 34H105C102.791 34 101 32.2091 101 30V30Z" fill="#3772FF"/>
<path d="M101 43C101 40.7909 102.791 39 105 39H253C255.209 39 257 40.7909 257 43V43C257 45.2091 255.209 47 253 47H105C102.791 47 101 45.2091 101 43V43Z" fill="#FEA145"/>
<path d="M101 82C101 80.3431 102.343 79 104 79H175C176.657 79 178 80.3431 178 82V82C178 83.6569 176.657 85 175 85H104C102.343 85 101 83.6569 101 82V82Z" fill="#DDDDDD"/>
<path d="M101 73C101 71.3431 102.343 70 104 70H254C255.657 70 257 71.3431 257 73V73C257 74.6569 255.657 76 254 76H104C102.343 76 101 74.6569 101 73V73Z" fill="#DDDDDD"/>
<path d="M101 64C101 62.3431 102.343 61 104 61H254C255.657 61 257 62.3431 257 64V64C257 65.6569 255.657 67 254 67H104C102.343 67 101 65.6569 101 64V64Z" fill="#DDDDDD"/>
</svg>
