<svg width="218" height="140" viewBox="0 0 218 140" fill="none" xmlns="http://www.w3.org/2000/svg">
<path d="M0 4C0 1.79086 1.79086 0 4 0H213.851C216.06 0 217.851 1.79086 217.851 4V135.522C217.851 137.732 216.06 139.522 213.851 139.522H4C1.79086 139.522 0 137.732 0 135.522V4Z" fill="white"/>
<path d="M0 4C0 1.79086 1.79086 0 4 0H213.851C216.06 0 217.851 1.79086 217.851 4V12.2388H0V4Z" fill="#192353"/>
<circle cx="6.44776" cy="6.44776" r="2.44776" fill="#FEA145"/>
<circle cx="13.791" cy="6.44776" r="2.44776" fill="#FEB56B"/>
<circle cx="21.1343" cy="6.44776" r="2.44776" fill="#FFC286"/>
<rect width="4" height="4" rx="2" transform="matrix(1 0 0 -1 9 61)" fill="#3772FF"/>
<rect width="4" height="4" rx="2" transform="matrix(1 0 0 -1 9 28)" fill="#3772FF"/>
<rect width="4" height="4" rx="2" transform="matrix(1 0 0 -1 9 39)" fill="#3772FF"/>
<rect width="4" height="4" rx="2" transform="matrix(1 0 0 -1 9 50)" fill="#3772FF"/>
<rect width="70" height="4" rx="2" transform="matrix(1 0 0 -1 23 83)" fill="#FEA145"/>
<rect width="4" height="4" rx="2" transform="matrix(1 0 0 -1 9 72)" fill="#3772FF"/>
<rect width="4" height="4" rx="2" transform="matrix(1 0 0 -1 9 127)" fill="#3772FF"/>
<rect width="68" height="4" rx="2" transform="matrix(1 0 0 -1 23 50)" fill="#3772FF"/>
<rect width="4" height="4" rx="2" transform="matrix(1 0 0 -1 9 83)" fill="#3772FF"/>
<rect width="4" height="4" rx="2" transform="matrix(1 0 0 -1 9 94)" fill="#3772FF"/>
<rect width="111" height="4" rx="2" transform="matrix(1 0 0 -1 23 28)" fill="#3772FF"/>
<rect width="4" height="4" rx="2" transform="matrix(1 0 0 -1 9 105)" fill="#3772FF"/>
<rect width="4" height="4" rx="2" transform="matrix(1 0 0 -1 9 116)" fill="#3772FF"/>
<rect width="58" height="4" rx="2" transform="matrix(1 0 0 -1 87 61)" fill="#FEA145"/>
<rect width="42" height="4" rx="2" transform="matrix(1 0 0 -1 141 28)" fill="#FEA145"/>
<rect width="20" height="4" rx="2" transform="matrix(1 0 0 -1 23 39)" fill="#FEA145"/>
<rect width="58" height="4" rx="2" transform="matrix(1 0 0 -1 23 61)" fill="#FEA145"/>
<rect width="20" height="4" rx="2" transform="matrix(1 0 0 -1 48 39)" fill="#FEA145"/>
<rect width="20" height="4" rx="2" transform="matrix(1 0 0 -1 162 50)" fill="#FEA145"/>
<rect width="20" height="4" rx="2" transform="matrix(1 0 0 -1 23 73)" fill="#FEA145"/>
<rect width="53" height="4" rx="2" transform="matrix(1 0 0 -1 73 39)" fill="#FEA145"/>
<rect width="58" height="4" rx="2" transform="matrix(1 0 0 -1 97 50)" fill="#FEA145"/>
<rect width="76" height="4" rx="2" transform="matrix(1 0 0 -1 130 39)" fill="#3772FF"/>
<rect width="15" height="4" rx="2" transform="matrix(1 0 0 -1 23 94)" fill="#FEA145"/>
<rect width="157" height="4" rx="2" transform="matrix(1 0 0 -1 23 105)" fill="#3772FF"/>
<rect width="60" height="4" rx="2" transform="matrix(1 0 0 -1 23 116)" fill="#FEA145"/>
<rect width="60" height="4" rx="2" transform="matrix(1 0 0 -1 87 116)" fill="#FEA145"/>
<rect width="18" height="4" rx="2" transform="matrix(1 0 0 -1 23 127)" fill="#3772FF"/>
<rect width="69" height="4" rx="2" transform="matrix(1 0 0 -1 47 73)" fill="#FEA145"/>
<rect width="80" height="4" rx="2" transform="matrix(1 0 0 -1 113 73)" fill="#FEA145"/>
<rect width="31" height="4" rx="2" transform="matrix(1 0 0 -1 151 61)" fill="#3772FF"/>
</svg>
