<svg width="1142" height="310" viewBox="0 0 1142 310" fill="none" xmlns="http://www.w3.org/2000/svg">
<rect x="295.515" y="0.5" width="323.328" height="227.866" rx="3.5" fill="#192353" stroke="white"/>
<rect x="313.373" y="18.3579" width="287.612" height="167.672" rx="4" fill="#3772FF"/>
<circle cx="457.791" cy="206.836" r="6.84328" stroke="white"/>
<path d="M435.761 228.866H480.433L482.881 267.418H433.313L435.761 228.866Z" fill="#192353"/>
<path d="M410.56 270.806C410.56 268.873 412.127 267.306 414.06 267.306H501.522C503.455 267.306 505.022 268.873 505.022 270.806V278.545H410.56V270.806Z" fill="#192353" stroke="white"/>
<mask id="path-6-inside-1_1852_1023" fill="white">
<path d="M637.358 143.523C637.358 141.314 639.149 139.523 641.358 139.523H865.895C868.104 139.523 869.895 141.314 869.895 143.523V289.732C869.895 291.941 868.104 293.732 865.895 293.732H641.358C639.149 293.732 637.358 291.941 637.358 289.732V143.523Z"/>
</mask>
<path d="M637.358 143.523C637.358 141.314 639.149 139.523 641.358 139.523H865.895C868.104 139.523 869.895 141.314 869.895 143.523V289.732C869.895 291.941 868.104 293.732 865.895 293.732H641.358C639.149 293.732 637.358 291.941 637.358 289.732V143.523Z" fill="#192353"/>
<path d="M636.358 143.523C636.358 140.761 638.596 138.523 641.358 138.523H865.895C868.657 138.523 870.895 140.761 870.895 143.523H868.895C868.895 141.866 867.552 140.523 865.895 140.523H641.358C639.701 140.523 638.358 141.866 638.358 143.523H636.358ZM869.895 293.732H637.358H869.895ZM641.358 293.732C638.596 293.732 636.358 291.493 636.358 288.732V143.523C636.358 140.761 638.596 138.523 641.358 138.523V140.523C639.701 140.523 638.358 141.866 638.358 143.523V289.732C638.358 291.941 639.701 293.732 641.358 293.732ZM865.895 138.523C868.657 138.523 870.895 140.761 870.895 143.523V288.732C870.895 291.493 868.657 293.732 865.895 293.732C867.552 293.732 868.895 291.941 868.895 289.732V143.523C868.895 141.866 867.552 140.523 865.895 140.523V138.523Z" fill="white" mask="url(#path-6-inside-1_1852_1023)"/>
<rect x="644.701" y="146.866" width="217.851" height="139.522" rx="4" fill="#FF8811"/>
<path d="M741.035 302.04L741.181 302.187H741.388H765.866H766.073L766.219 302.04L774.028 294.232H887.754V302.253L887.75 302.274C887.742 302.316 887.73 302.377 887.715 302.454C887.685 302.609 887.641 302.824 887.586 303.067C887.477 303.559 887.329 304.145 887.172 304.575C887.1 304.772 887.039 304.951 886.982 305.116C886.732 305.839 886.575 306.294 886.053 306.853C885.68 307.252 885.381 307.412 884.94 307.647C884.764 307.742 884.564 307.848 884.328 307.987C883.887 308.247 883.291 308.546 882.797 308.783C882.551 308.9 882.334 309.001 882.179 309.073C882.118 309.101 882.067 309.124 882.027 309.142H626.389L626.368 309.138C626.326 309.13 626.265 309.119 626.188 309.103C626.034 309.073 625.819 309.029 625.575 308.975C625.083 308.865 624.498 308.718 624.067 308.56C623.076 308.199 622.549 307.989 621.742 307.402L621.7 307.371C620.905 306.794 620.483 306.486 620.046 305.722C619.796 305.286 619.652 304.606 619.576 303.983C619.539 303.682 619.52 303.411 619.51 303.215C619.505 303.118 619.503 303.04 619.501 302.987C619.501 302.96 619.5 302.94 619.5 302.927L619.5 302.912L619.5 302.911V302.909V294.232H733.226L741.035 302.04Z" fill="#192353" stroke="white"/>
<rect x="0.5" y="183.306" width="63.8657" height="122.612" rx="3.5" fill="#192353" stroke="white"/>
<rect x="1.22412" y="195.045" width="62.4179" height="93.0149" fill="white"/>
<rect x="4.89551" y="198.716" width="17.1343" height="17.1343" rx="2" fill="#FEB56B"/>
<rect x="44.0596" y="221.97" width="17.1343" height="17.1343" rx="2" fill="#FEB56B"/>
<rect x="4.89551" y="246.448" width="17.1343" height="17.1343" rx="2" fill="#FEB56B"/>
<path d="M4.89551 272.925C4.89551 271.821 5.79094 270.925 6.89551 270.925H59.194C60.2986 270.925 61.194 271.821 61.194 272.925V288.06H4.89551V272.925Z" fill="#3772FF"/>
<rect x="24.4775" y="246.448" width="17.1343" height="17.1343" rx="2" fill="#FEB56B"/>
<rect x="44.0596" y="246.448" width="17.1343" height="17.1343" rx="2" fill="#FEB56B"/>
<rect x="24.4775" y="198.716" width="36.7164" height="3.67164" rx="1.83582" fill="#3772FF"/>
<rect x="4.89551" y="221.97" width="36.7164" height="3.67164" rx="1.83582" fill="#3772FF"/>
<rect x="24.4775" y="207.284" width="36.7164" height="1.22388" rx="0.61194" fill="#DDDDDD"/>
<rect x="4.89551" y="230.537" width="36.7164" height="1.22388" rx="0.61194" fill="#DDDDDD"/>
<rect x="24.4775" y="204.836" width="36.7164" height="1.22388" rx="0.61194" fill="#DDDDDD"/>
<rect x="4.89551" y="228.09" width="36.7164" height="1.22388" rx="0.61194" fill="#DDDDDD"/>
<rect x="24.4775" y="209.731" width="36.7164" height="1.22388" rx="0.61194" fill="#DDDDDD"/>
<rect x="4.89551" y="232.985" width="36.7164" height="1.22388" rx="0.61194" fill="#DDDDDD"/>
<rect x="24.4775" y="212.179" width="36.7164" height="1.22388" rx="0.61194" fill="#DDDDDD"/>
<rect x="4.89551" y="235.433" width="36.7164" height="1.22388" rx="0.61194" fill="#DDDDDD"/>
<rect x="24.4775" y="214.627" width="36.7164" height="1.22388" rx="0.61194" fill="#DDDDDD"/>
<rect x="4.89551" y="237.881" width="36.7164" height="1.22388" rx="0.61194" fill="#DDDDDD"/>
<circle cx="32.433" cy="297.239" r="4.28358" fill="white"/>
<rect x="1035.5" y="162.052" width="105.478" height="144.642" rx="3.5" fill="#090F2C" stroke="white"/>
<rect x="1043.57" y="176.238" width="90.5672" height="116.269" fill="#3772FF"/>
<circle cx="1088.85" cy="168.895" r="1.22388" fill="#D9E4FF"/>
<rect x="1085.18" y="296.179" width="6.1194" height="6.1194" rx="1" fill="#3772FF"/>
</svg>
