<svg width="1142" height="310" viewBox="0 0 1142 310" fill="none" xmlns="http://www.w3.org/2000/svg">
<rect x="295.515" y="0.5" width="323.328" height="227.866" rx="3.5" fill="#192353" stroke="white"/>
<rect x="313.373" y="18.3579" width="287.612" height="167.672" rx="4" fill="#3772FF"/>
<circle cx="457.791" cy="206.836" r="6.84328" stroke="white"/>
<path d="M435.761 228.866H480.433L482.88 267.418H433.313L435.761 228.866Z" fill="#192353"/>
<path d="M410.559 270.806C410.559 268.873 412.126 267.306 414.059 267.306H501.522C503.455 267.306 505.022 268.873 505.022 270.806V278.544H410.559V270.806Z" fill="#192353" stroke="white"/>
<mask id="path-6-inside-1_1531_786" fill="white">
<path d="M637.358 143.523C637.358 141.314 639.149 139.523 641.358 139.523H865.895C868.104 139.523 869.895 141.314 869.895 143.523V289.732C869.895 291.941 868.104 293.732 865.895 293.732H641.358C639.149 293.732 637.358 291.941 637.358 289.732V143.523Z"/>
</mask>
<path d="M637.358 143.523C637.358 141.314 639.149 139.523 641.358 139.523H865.895C868.104 139.523 869.895 141.314 869.895 143.523V289.732C869.895 291.941 868.104 293.732 865.895 293.732H641.358C639.149 293.732 637.358 291.941 637.358 289.732V143.523Z" fill="#192353"/>
<path d="M636.358 143.523C636.358 140.761 638.597 138.523 641.358 138.523H865.895C868.657 138.523 870.895 140.761 870.895 143.523H868.895C868.895 141.866 867.552 140.523 865.895 140.523H641.358C639.701 140.523 638.358 141.866 638.358 143.523H636.358ZM869.895 293.732H637.358H869.895ZM641.358 293.732C638.597 293.732 636.358 291.493 636.358 288.732V143.523C636.358 140.761 638.597 138.523 641.358 138.523V140.523C639.701 140.523 638.358 141.866 638.358 143.523V289.732C638.358 291.941 639.701 293.732 641.358 293.732ZM865.895 138.523C868.657 138.523 870.895 140.761 870.895 143.523V288.732C870.895 291.493 868.657 293.732 865.895 293.732C867.552 293.732 868.895 291.941 868.895 289.732V143.523C868.895 141.866 867.552 140.523 865.895 140.523V138.523Z" fill="white" mask="url(#path-6-inside-1_1531_786)"/>
<rect x="644.701" y="146.866" width="217.851" height="139.522" rx="4" fill="#FF8811"/>
<path d="M741.034 302.04L741.181 302.187H741.388H765.865H766.073L766.219 302.04L774.028 294.232H887.754V302.253L887.75 302.274C887.742 302.316 887.73 302.377 887.715 302.454C887.684 302.609 887.64 302.824 887.586 303.067C887.476 303.559 887.329 304.145 887.172 304.575C887.1 304.772 887.038 304.951 886.981 305.116C886.732 305.839 886.575 306.294 886.052 306.853C885.679 307.252 885.381 307.412 884.94 307.647C884.764 307.742 884.564 307.848 884.328 307.987C883.887 308.247 883.291 308.546 882.797 308.783C882.551 308.9 882.334 309.001 882.178 309.073C882.118 309.101 882.066 309.124 882.027 309.142H626.389L626.368 309.138C626.326 309.13 626.264 309.119 626.188 309.103C626.033 309.073 625.818 309.029 625.575 308.975C625.083 308.865 624.497 308.718 624.067 308.56C623.076 308.199 622.549 307.989 621.742 307.402L621.699 307.371C620.905 306.794 620.482 306.486 620.046 305.722C619.796 305.286 619.652 304.606 619.575 303.983C619.538 303.682 619.519 303.411 619.51 303.215C619.505 303.118 619.502 303.04 619.501 302.987C619.501 302.96 619.5 302.94 619.5 302.927L619.5 302.912L619.5 302.911V302.909V294.232H733.226L741.034 302.04Z" fill="#192353" stroke="white"/>
<rect x="0.5" y="183.306" width="63.8657" height="122.612" rx="3.5" fill="#192353" stroke="white"/>
<rect x="1.22388" y="195.045" width="62.4179" height="93.0149" fill="white"/>
<rect x="4.89551" y="198.717" width="17.1343" height="17.1343" rx="2" fill="#FEB56B"/>
<rect x="44.0597" y="221.97" width="17.1343" height="17.1343" rx="2" fill="#FEB56B"/>
<rect x="4.89551" y="246.448" width="17.1343" height="17.1343" rx="2" fill="#FEB56B"/>
<path d="M4.89551 272.926C4.89551 271.821 5.79094 270.926 6.89551 270.926H59.194C60.2986 270.926 61.194 271.821 61.194 272.926V288.06H4.89551V272.926Z" fill="#3772FF"/>
<rect x="24.4776" y="246.448" width="17.1343" height="17.1343" rx="2" fill="#FEB56B"/>
<rect x="44.0597" y="246.448" width="17.1343" height="17.1343" rx="2" fill="#FEB56B"/>
<rect x="24.4776" y="198.717" width="36.7164" height="3.67164" rx="1.83582" fill="#3772FF"/>
<rect x="4.89551" y="221.97" width="36.7164" height="3.67164" rx="1.83582" fill="#3772FF"/>
<rect x="24.4776" y="207.284" width="36.7164" height="1.22388" rx="0.61194" fill="#DDDDDD"/>
<rect x="4.89551" y="230.537" width="36.7164" height="1.22388" rx="0.61194" fill="#DDDDDD"/>
<rect x="24.4776" y="204.836" width="36.7164" height="1.22388" rx="0.61194" fill="#DDDDDD"/>
<rect x="4.89551" y="228.09" width="36.7164" height="1.22388" rx="0.61194" fill="#DDDDDD"/>
<rect x="24.4776" y="209.731" width="36.7164" height="1.22388" rx="0.61194" fill="#DDDDDD"/>
<rect x="4.89551" y="232.985" width="36.7164" height="1.22388" rx="0.61194" fill="#DDDDDD"/>
<rect x="24.4776" y="212.179" width="36.7164" height="1.22388" rx="0.61194" fill="#DDDDDD"/>
<rect x="4.89551" y="235.433" width="36.7164" height="1.22388" rx="0.61194" fill="#DDDDDD"/>
<rect x="24.4776" y="214.627" width="36.7164" height="1.22388" rx="0.61194" fill="#DDDDDD"/>
<rect x="4.89551" y="237.881" width="36.7164" height="1.22388" rx="0.61194" fill="#DDDDDD"/>
<circle cx="32.4328" cy="297.239" r="4.28358" fill="white"/>
<rect x="1035.5" y="162.052" width="105.478" height="144.642" rx="3.5" fill="#090F2C" stroke="white"/>
<rect x="1043.57" y="176.238" width="90.5672" height="116.269" fill="#3772FF"/>
<circle cx="1088.85" cy="168.895" r="1.22388" fill="#D9E4FF"/>
<rect x="1085.18" y="296.179" width="6.1194" height="6.1194" rx="1" fill="#3772FF"/>
<rect x="91" y="110.806" width="287.612" height="167.672" rx="4" fill="white"/>
<path d="M91 114.806C91 112.597 92.7909 110.806 95 110.806H374.612C376.821 110.806 378.612 112.597 378.612 114.806V123.045H91V114.806Z" fill="#192353"/>
<circle cx="98.3431" cy="116.926" r="2.44776" fill="#82A7FF"/>
<circle cx="105.686" cy="116.926" r="2.44776" fill="#AAC3FF"/>
<circle cx="113.03" cy="116.926" r="2.44776" fill="#D9E4FF"/>
<path d="M779 62.7461C779 60.537 780.791 58.7461 783 58.7461H992.851C995.06 58.7461 996.851 60.537 996.851 62.7461V194.268C996.851 196.478 995.06 198.268 992.851 198.268H783C780.791 198.268 779 196.478 779 194.268V62.7461Z" fill="white"/>
<path d="M779 62.7461C779 60.537 780.791 58.7461 783 58.7461H992.851C995.06 58.7461 996.851 60.537 996.851 62.7461V70.9849H779V62.7461Z" fill="#192353"/>
<circle cx="787.567" cy="64.8655" r="2.44776" fill="#FEA145"/>
<circle cx="794.91" cy="64.8655" r="2.44776" fill="#FEB56B"/>
<circle cx="802.254" cy="64.8655" r="2.44776" fill="#FFC286"/>
<rect width="111" height="4" rx="2" transform="matrix(1 0 0 -1 800 88)" fill="#3772FF"/>
<rect width="4" height="4" rx="2" transform="matrix(1 0 0 -1 786 88)" fill="#3772FF"/>
<rect width="4" height="4" rx="2" transform="matrix(1 0 0 -1 786 99)" fill="#3772FF"/>
<rect width="4" height="4" rx="2" transform="matrix(1 0 0 -1 786 110)" fill="#3772FF"/>
<rect width="4" height="4" rx="2" transform="matrix(1 0 0 -1 786 121)" fill="#3772FF"/>
<rect width="4" height="4" rx="2" transform="matrix(1 0 0 -1 786 132)" fill="#3772FF"/>
<rect width="4" height="4" rx="2" transform="matrix(1 0 0 -1 786 143)" fill="#3772FF"/>
<rect width="4" height="4" rx="2" transform="matrix(1 0 0 -1 786 154)" fill="#3772FF"/>
<rect width="4" height="4" rx="2" transform="matrix(1 0 0 -1 786 165)" fill="#3772FF"/>
<rect width="4" height="4" rx="2" transform="matrix(1 0 0 -1 786 176)" fill="#3772FF"/>
<rect width="4" height="4" rx="2" transform="matrix(1 0 0 -1 786 187)" fill="#3772FF"/>
<rect width="42" height="4" rx="2" transform="matrix(1 0 0 -1 918 88)" fill="#FEA145"/>
<rect width="20" height="4" rx="2" transform="matrix(1 0 0 -1 800 99)" fill="#FEA145"/>
<rect width="20" height="4" rx="2" transform="matrix(1 0 0 -1 825 99)" fill="#FEA145"/>
<rect width="20" height="4" rx="2" transform="matrix(1 0 0 -1 939 110)" fill="#FEA145"/>
<rect width="53" height="4" rx="2" transform="matrix(1 0 0 -1 850 99)" fill="#FEA145"/>
<rect width="76" height="4" rx="2" transform="matrix(1 0 0 -1 907 99)" fill="#3772FF"/>
<rect width="68" height="4" rx="2" transform="matrix(1 0 0 -1 800 110)" fill="#3772FF"/>
<rect width="58" height="4" rx="2" transform="matrix(1 0 0 -1 874 110)" fill="#FEA145"/>
<rect width="58" height="4" rx="2" transform="matrix(1 0 0 -1 800 121)" fill="#FEA145"/>
<rect width="58" height="4" rx="2" transform="matrix(1 0 0 -1 864 121)" fill="#FEA145"/>
<rect width="20" height="4" rx="2" transform="matrix(1 0 0 -1 800 133)" fill="#FEA145"/>
<rect width="70" height="4" rx="2" transform="matrix(1 0 0 -1 800 143)" fill="#FEA145"/>
<rect width="15" height="4" rx="2" transform="matrix(1 0 0 -1 800 154)" fill="#FEA145"/>
<rect width="157" height="4" rx="2" transform="matrix(1 0 0 -1 800 165)" fill="#3772FF"/>
<rect width="60" height="4" rx="2" transform="matrix(1 0 0 -1 800 176)" fill="#FEA145"/>
<rect width="60" height="4" rx="2" transform="matrix(1 0 0 -1 864 176)" fill="#FEA145"/>
<rect width="18" height="4" rx="2" transform="matrix(1 0 0 -1 800 187)" fill="#3772FF"/>
<rect width="69" height="4" rx="2" transform="matrix(1 0 0 -1 824 133)" fill="#FEA145"/>
<rect width="80" height="4" rx="2" transform="matrix(1 0 0 -1 890 133)" fill="#FEA145"/>
<rect width="31" height="4" rx="2" transform="matrix(1 0 0 -1 928 121)" fill="#3772FF"/>
<path d="M119 223C119 220.791 120.791 219 123 219H341C343.209 219 345 220.791 345 223V278H119V223Z" fill="#3772FF"/>
<path d="M119 140C119 137.791 120.791 136 123 136H174C176.209 136 178 137.791 178 140V191C178 193.209 176.209 195 174 195H123C120.791 195 119 193.209 119 191V140Z" fill="#FF8811"/>
<path d="M189 140C189 137.791 190.791 136 193 136H244C246.209 136 248 137.791 248 140C248 142.209 246.209 144 244 144H193C190.791 144 189 142.209 189 140Z" fill="#3772FF"/>
<path d="M189 153C189 150.791 190.791 149 193 149H341C343.209 149 345 150.791 345 153C345 155.209 343.209 157 341 157H193C190.791 157 189 155.209 189 153Z" fill="#FEA145"/>
<path d="M189 192C189 190.343 190.343 189 192 189H263C264.657 189 266 190.343 266 192C266 193.657 264.657 195 263 195H192C190.343 195 189 193.657 189 192Z" fill="#DDDDDD"/>
<path d="M189 183C189 181.343 190.343 180 192 180H342C343.657 180 345 181.343 345 183C345 184.657 343.657 186 342 186H192C190.343 186 189 184.657 189 183Z" fill="#DDDDDD"/>
<path d="M189 174C189 172.343 190.343 171 192 171H342C343.657 171 345 172.343 345 174C345 175.657 343.657 177 342 177H192C190.343 177 189 175.657 189 174Z" fill="#DDDDDD"/>
</svg>
