<svg width="70" height="70" viewBox="0 0 70 70" fill="none" xmlns="http://www.w3.org/2000/svg">
<path d="M35 13.784L33.5901 13.592L15.7735 44.28C16.5425 44.952 17.0552 45.816 17.2796 46.776H52.7204C52.9448 45.816 53.4575 44.952 54.2265 44.28L36.4099 13.592L35 13.784ZM17.6961 49.496L31.4111 57.592C32.3403 56.728 33.6221 56.216 35 56.216C36.3779 56.216 37.6597 56.728 38.589 57.592L52.3039 49.496H17.6961ZM35 67C33.5722 67 32.2029 66.4336 31.1933 65.4254C30.1838 64.4172 29.6166 63.0498 29.6166 61.624L29.905 59.832L16.126 51.672C15.1326 52.824 13.6906 53.528 12.0564 53.528C10.6286 53.528 9.25928 52.9616 8.2497 51.9534C7.24011 50.9452 6.67293 49.5778 6.67293 48.152C6.67293 45.624 8.37127 43.512 10.7105 42.904V26.552C8.05083 26.2 6 23.928 6 21.176C6 19.7502 6.56718 18.3828 7.57677 17.3746C8.58636 16.3664 9.95565 15.8 11.3834 15.8C13.1459 15.8 14.684 16.632 15.6773 17.912L29.8088 9.816L29.6166 8.376C29.6166 5.4 32.0199 3 35 3C37.9801 3 40.3834 5.4 40.3834 8.376L40.1912 9.816L54.3227 17.912C55.316 16.632 56.8541 15.8 58.6166 15.8C60.0444 15.8 61.4136 16.3664 62.4232 17.3746C63.4328 18.3828 64 19.7502 64 21.176C64 23.928 61.9492 26.2 59.2895 26.552V42.904C61.6287 43.512 63.3271 45.624 63.3271 48.152C63.3271 49.5778 62.7599 50.9452 61.7503 51.9534C60.7407 52.9616 59.3714 53.528 57.9436 53.528C56.3094 53.528 54.8674 52.824 53.874 51.672L40.095 59.832L40.3834 61.624C40.3834 63.0498 39.8162 64.4172 38.8067 65.4254C37.7971 66.4336 36.4278 67 35 67ZM31.1547 12.152L16.7348 20.408L16.7989 21.176C16.7989 23.448 15.389 25.4 13.4022 26.2L13.4983 43L31.1547 12.152ZM38.8453 12.152L56.5017 43L56.5978 26.2C54.6111 25.4 53.2011 23.448 53.2011 21.176L53.2652 20.408L38.8453 12.152Z" fill="#E535AB"/>
</svg>
