<svg width="786" height="261" viewBox="0 0 786 261" fill="none" xmlns="http://www.w3.org/2000/svg">
<circle cx="636.697" cy="256.862" r="3.63827" transform="rotate(-180 636.697 256.862)" fill="#DDDDDD"/>
<circle cx="636.697" cy="214.658" r="3.63827" transform="rotate(-180 636.697 214.658)" fill="#DDDDDD"/>
<circle cx="636.697" cy="172.454" r="3.63827" transform="rotate(-180 636.697 172.454)" fill="#DDDDDD"/>
<circle cx="636.697" cy="130.25" r="3.63827" transform="rotate(-180 636.697 130.25)" fill="#DDDDDD"/>
<circle cx="636.697" cy="88.0458" r="3.63827" transform="rotate(-180 636.697 88.0458)" fill="#DDDDDD"/>
<circle cx="636.697" cy="45.8422" r="3.63827" transform="rotate(-180 636.697 45.8422)" fill="#DDDDDD"/>
<circle cx="636.697" cy="3.6381" r="3.63827" transform="rotate(-180 636.697 3.6381)" fill="#DDDDDD"/>
<circle cx="467.881" cy="256.862" r="3.63827" transform="rotate(-180 467.881 256.862)" fill="#DDDDDD"/>
<circle cx="467.881" cy="214.658" r="3.63827" transform="rotate(-180 467.881 214.658)" fill="#DDDDDD"/>
<circle cx="467.881" cy="172.454" r="3.63827" transform="rotate(-180 467.881 172.454)" fill="#DDDDDD"/>
<circle cx="467.881" cy="130.25" r="3.63827" transform="rotate(-180 467.881 130.25)" fill="#DDDDDD"/>
<circle cx="467.881" cy="88.0458" r="3.63827" transform="rotate(-180 467.881 88.0458)" fill="#DDDDDD"/>
<circle cx="467.881" cy="45.8422" r="3.63827" transform="rotate(-180 467.881 45.8422)" fill="#DDDDDD"/>
<circle cx="467.881" cy="3.6381" r="3.63827" transform="rotate(-180 467.881 3.6381)" fill="#DDDDDD"/>
<circle cx="299.066" cy="256.862" r="3.63827" transform="rotate(-180 299.066 256.862)" fill="#DDDDDD"/>
<circle cx="299.066" cy="214.658" r="3.63827" transform="rotate(-180 299.066 214.658)" fill="#DDDDDD"/>
<circle cx="299.066" cy="172.454" r="3.63827" transform="rotate(-180 299.066 172.454)" fill="#DDDDDD"/>
<circle cx="299.066" cy="130.25" r="3.63827" transform="rotate(-180 299.066 130.25)" fill="#DDDDDD"/>
<circle cx="299.066" cy="88.0458" r="3.63827" transform="rotate(-180 299.066 88.0458)" fill="#DDDDDD"/>
<circle cx="299.066" cy="45.8422" r="3.63827" transform="rotate(-180 299.066 45.8422)" fill="#DDDDDD"/>
<circle cx="299.066" cy="3.6381" r="3.63827" transform="rotate(-180 299.066 3.6381)" fill="#DDDDDD"/>
<circle cx="130.25" cy="256.862" r="3.63827" transform="rotate(-180 130.25 256.862)" fill="#DDDDDD"/>
<circle cx="130.25" cy="214.658" r="3.63827" transform="rotate(-180 130.25 214.658)" fill="#DDDDDD"/>
<circle cx="130.25" cy="172.454" r="3.63827" transform="rotate(-180 130.25 172.454)" fill="#DDDDDD"/>
<circle cx="130.25" cy="130.25" r="3.63827" transform="rotate(-180 130.25 130.25)" fill="#DDDDDD"/>
<circle cx="130.25" cy="88.0458" r="3.63827" transform="rotate(-180 130.25 88.0458)" fill="#DDDDDD"/>
<circle cx="130.25" cy="45.8422" r="3.63827" transform="rotate(-180 130.25 45.8422)" fill="#DDDDDD"/>
<circle cx="130.25" cy="3.6381" r="3.63827" transform="rotate(-180 130.25 3.6381)" fill="#DDDDDD"/>
<circle cx="636.697" cy="256.862" r="3.63827" transform="rotate(-180 636.697 256.862)" fill="#DDDDDD"/>
<circle cx="636.697" cy="214.658" r="3.63827" transform="rotate(-180 636.697 214.658)" fill="#DDDDDD"/>
<circle cx="636.697" cy="172.454" r="3.63827" transform="rotate(-180 636.697 172.454)" fill="#DDDDDD"/>
<circle cx="636.697" cy="130.25" r="3.63827" transform="rotate(-180 636.697 130.25)" fill="#DDDDDD"/>
<circle cx="636.697" cy="88.0458" r="3.63827" transform="rotate(-180 636.697 88.0458)" fill="#DDDDDD"/>
<circle cx="636.697" cy="45.8422" r="3.63827" transform="rotate(-180 636.697 45.8422)" fill="#DDDDDD"/>
<circle cx="636.697" cy="3.6381" r="3.63827" transform="rotate(-180 636.697 3.6381)" fill="#DDDDDD"/>
<circle cx="467.881" cy="256.862" r="3.63827" transform="rotate(-180 467.881 256.862)" fill="#DDDDDD"/>
<circle cx="467.881" cy="214.658" r="3.63827" transform="rotate(-180 467.881 214.658)" fill="#DDDDDD"/>
<circle cx="467.881" cy="172.454" r="3.63827" transform="rotate(-180 467.881 172.454)" fill="#DDDDDD"/>
<circle cx="467.881" cy="130.25" r="3.63827" transform="rotate(-180 467.881 130.25)" fill="#DDDDDD"/>
<circle cx="467.881" cy="88.0458" r="3.63827" transform="rotate(-180 467.881 88.0458)" fill="#DDDDDD"/>
<circle cx="467.881" cy="45.8422" r="3.63827" transform="rotate(-180 467.881 45.8422)" fill="#DDDDDD"/>
<circle cx="467.881" cy="3.6381" r="3.63827" transform="rotate(-180 467.881 3.6381)" fill="#DDDDDD"/>
<circle cx="299.066" cy="256.862" r="3.63827" transform="rotate(-180 299.066 256.862)" fill="#DDDDDD"/>
<circle cx="299.066" cy="214.658" r="3.63827" transform="rotate(-180 299.066 214.658)" fill="#DDDDDD"/>
<circle cx="299.066" cy="172.454" r="3.63827" transform="rotate(-180 299.066 172.454)" fill="#DDDDDD"/>
<circle cx="299.066" cy="130.25" r="3.63827" transform="rotate(-180 299.066 130.25)" fill="#DDDDDD"/>
<circle cx="299.066" cy="88.0458" r="3.63827" transform="rotate(-180 299.066 88.0458)" fill="#DDDDDD"/>
<circle cx="299.066" cy="45.8422" r="3.63827" transform="rotate(-180 299.066 45.8422)" fill="#DDDDDD"/>
<circle cx="299.066" cy="3.6381" r="3.63827" transform="rotate(-180 299.066 3.6381)" fill="#DDDDDD"/>
<circle cx="130.25" cy="256.862" r="3.63827" transform="rotate(-180 130.25 256.862)" fill="#DDDDDD"/>
<circle cx="130.25" cy="214.658" r="3.63827" transform="rotate(-180 130.25 214.658)" fill="#DDDDDD"/>
<circle cx="130.25" cy="172.454" r="3.63827" transform="rotate(-180 130.25 172.454)" fill="#DDDDDD"/>
<circle cx="130.25" cy="130.25" r="3.63827" transform="rotate(-180 130.25 130.25)" fill="#DDDDDD"/>
<circle cx="130.25" cy="88.0458" r="3.63827" transform="rotate(-180 130.25 88.0458)" fill="#DDDDDD"/>
<circle cx="130.25" cy="45.8422" r="3.63827" transform="rotate(-180 130.25 45.8422)" fill="#DDDDDD"/>
<circle cx="130.25" cy="3.6381" r="3.63827" transform="rotate(-180 130.25 3.6381)" fill="#DDDDDD"/>
<circle cx="763.309" cy="256.862" r="3.63827" transform="rotate(-180 763.309 256.862)" fill="#DDDDDD"/>
<circle cx="763.309" cy="214.658" r="3.63827" transform="rotate(-180 763.309 214.658)" fill="#DDDDDD"/>
<circle cx="763.309" cy="172.454" r="3.63827" transform="rotate(-180 763.309 172.454)" fill="#DDDDDD"/>
<circle cx="763.309" cy="130.25" r="3.63827" transform="rotate(-180 763.309 130.25)" fill="#DDDDDD"/>
<circle cx="763.309" cy="88.0463" r="3.63827" transform="rotate(-180 763.309 88.0463)" fill="#DDDDDD"/>
<circle cx="763.309" cy="45.8422" r="3.63827" transform="rotate(-180 763.309 45.8422)" fill="#DDDDDD"/>
<circle cx="763.309" cy="3.63859" r="3.63827" transform="rotate(-180 763.309 3.63859)" fill="#DDDDDD"/>
<circle cx="594.493" cy="256.862" r="3.63827" transform="rotate(-180 594.493 256.862)" fill="#DDDDDD"/>
<circle cx="594.493" cy="214.658" r="3.63827" transform="rotate(-180 594.493 214.658)" fill="#DDDDDD"/>
<circle cx="594.493" cy="172.454" r="3.63827" transform="rotate(-180 594.493 172.454)" fill="#DDDDDD"/>
<circle cx="594.493" cy="130.25" r="3.63827" transform="rotate(-180 594.493 130.25)" fill="#DDDDDD"/>
<circle cx="594.493" cy="88.0458" r="3.63827" transform="rotate(-180 594.493 88.0458)" fill="#DDDDDD"/>
<circle cx="594.493" cy="45.8422" r="3.63827" transform="rotate(-180 594.493 45.8422)" fill="#DDDDDD"/>
<circle cx="594.493" cy="3.6381" r="3.63827" transform="rotate(-180 594.493 3.6381)" fill="#DDDDDD"/>
<circle cx="425.677" cy="256.862" r="3.63827" transform="rotate(-180 425.677 256.862)" fill="#DDDDDD"/>
<circle cx="425.677" cy="214.658" r="3.63827" transform="rotate(-180 425.677 214.658)" fill="#DDDDDD"/>
<circle cx="425.677" cy="172.454" r="3.63827" transform="rotate(-180 425.677 172.454)" fill="#DDDDDD"/>
<circle cx="425.677" cy="130.25" r="3.63827" transform="rotate(-180 425.677 130.25)" fill="#DDDDDD"/>
<circle cx="425.677" cy="88.0463" r="3.63827" transform="rotate(-180 425.677 88.0463)" fill="#DDDDDD"/>
<circle cx="425.677" cy="45.8422" r="3.63827" transform="rotate(-180 425.677 45.8422)" fill="#DDDDDD"/>
<circle cx="425.677" cy="3.63859" r="3.63827" transform="rotate(-180 425.677 3.63859)" fill="#DDDDDD"/>
<circle cx="256.862" cy="256.862" r="3.63827" transform="rotate(-180 256.862 256.862)" fill="#DDDDDD"/>
<circle cx="256.862" cy="214.658" r="3.63827" transform="rotate(-180 256.862 214.658)" fill="#DDDDDD"/>
<circle cx="256.862" cy="172.454" r="3.63827" transform="rotate(-180 256.862 172.454)" fill="#DDDDDD"/>
<circle cx="256.862" cy="130.25" r="3.63827" transform="rotate(-180 256.862 130.25)" fill="#DDDDDD"/>
<circle cx="256.862" cy="88.0458" r="3.63827" transform="rotate(-180 256.862 88.0458)" fill="#DDDDDD"/>
<circle cx="256.862" cy="45.8422" r="3.63827" transform="rotate(-180 256.862 45.8422)" fill="#DDDDDD"/>
<circle cx="256.862" cy="3.6381" r="3.63827" transform="rotate(-180 256.862 3.6381)" fill="#DDDDDD"/>
<circle cx="88.046" cy="256.862" r="3.63827" transform="rotate(-180 88.046 256.862)" fill="#DDDDDD"/>
<circle cx="88.046" cy="214.658" r="3.63827" transform="rotate(-180 88.046 214.658)" fill="#DDDDDD"/>
<circle cx="88.046" cy="172.454" r="3.63827" transform="rotate(-180 88.046 172.454)" fill="#DDDDDD"/>
<circle cx="88.046" cy="130.25" r="3.63827" transform="rotate(-180 88.046 130.25)" fill="#DDDDDD"/>
<circle cx="88.046" cy="88.0463" r="3.63827" transform="rotate(-180 88.046 88.0463)" fill="#DDDDDD"/>
<circle cx="88.046" cy="45.8422" r="3.63827" transform="rotate(-180 88.046 45.8422)" fill="#DDDDDD"/>
<circle cx="88.046" cy="3.63859" r="3.63827" transform="rotate(-180 88.046 3.63859)" fill="#DDDDDD"/>
<circle cx="763.309" cy="256.862" r="3.63827" transform="rotate(-180 763.309 256.862)" fill="#DDDDDD"/>
<circle cx="763.309" cy="214.658" r="3.63827" transform="rotate(-180 763.309 214.658)" fill="#DDDDDD"/>
<circle cx="763.309" cy="172.454" r="3.63827" transform="rotate(-180 763.309 172.454)" fill="#DDDDDD"/>
<circle cx="763.309" cy="130.25" r="3.63827" transform="rotate(-180 763.309 130.25)" fill="#DDDDDD"/>
<circle cx="763.309" cy="88.0463" r="3.63827" transform="rotate(-180 763.309 88.0463)" fill="#DDDDDD"/>
<circle cx="763.309" cy="45.8422" r="3.63827" transform="rotate(-180 763.309 45.8422)" fill="#DDDDDD"/>
<circle cx="763.309" cy="3.63859" r="3.63827" transform="rotate(-180 763.309 3.63859)" fill="#DDDDDD"/>
<circle cx="594.493" cy="256.862" r="3.63827" transform="rotate(-180 594.493 256.862)" fill="#DDDDDD"/>
<circle cx="594.493" cy="214.658" r="3.63827" transform="rotate(-180 594.493 214.658)" fill="#DDDDDD"/>
<circle cx="594.493" cy="172.454" r="3.63827" transform="rotate(-180 594.493 172.454)" fill="#DDDDDD"/>
<circle cx="594.493" cy="130.25" r="3.63827" transform="rotate(-180 594.493 130.25)" fill="#DDDDDD"/>
<circle cx="594.493" cy="88.0458" r="3.63827" transform="rotate(-180 594.493 88.0458)" fill="#DDDDDD"/>
<circle cx="594.493" cy="45.8422" r="3.63827" transform="rotate(-180 594.493 45.8422)" fill="#DDDDDD"/>
<circle cx="594.493" cy="3.6381" r="3.63827" transform="rotate(-180 594.493 3.6381)" fill="#DDDDDD"/>
<circle cx="425.677" cy="256.862" r="3.63827" transform="rotate(-180 425.677 256.862)" fill="#DDDDDD"/>
<circle cx="425.677" cy="214.658" r="3.63827" transform="rotate(-180 425.677 214.658)" fill="#DDDDDD"/>
<circle cx="425.677" cy="172.454" r="3.63827" transform="rotate(-180 425.677 172.454)" fill="#DDDDDD"/>
<circle cx="425.677" cy="130.25" r="3.63827" transform="rotate(-180 425.677 130.25)" fill="#DDDDDD"/>
<circle cx="425.677" cy="88.0463" r="3.63827" transform="rotate(-180 425.677 88.0463)" fill="#DDDDDD"/>
<circle cx="425.677" cy="45.8422" r="3.63827" transform="rotate(-180 425.677 45.8422)" fill="#DDDDDD"/>
<circle cx="425.677" cy="3.63859" r="3.63827" transform="rotate(-180 425.677 3.63859)" fill="#DDDDDD"/>
<circle cx="256.862" cy="256.862" r="3.63827" transform="rotate(-180 256.862 256.862)" fill="#DDDDDD"/>
<circle cx="256.862" cy="214.658" r="3.63827" transform="rotate(-180 256.862 214.658)" fill="#DDDDDD"/>
<circle cx="256.862" cy="172.454" r="3.63827" transform="rotate(-180 256.862 172.454)" fill="#DDDDDD"/>
<circle cx="256.862" cy="130.25" r="3.63827" transform="rotate(-180 256.862 130.25)" fill="#DDDDDD"/>
<circle cx="256.862" cy="88.0458" r="3.63827" transform="rotate(-180 256.862 88.0458)" fill="#DDDDDD"/>
<circle cx="256.862" cy="45.8422" r="3.63827" transform="rotate(-180 256.862 45.8422)" fill="#DDDDDD"/>
<circle cx="256.862" cy="3.6381" r="3.63827" transform="rotate(-180 256.862 3.6381)" fill="#DDDDDD"/>
<circle cx="88.046" cy="256.862" r="3.63827" transform="rotate(-180 88.046 256.862)" fill="#DDDDDD"/>
<circle cx="88.046" cy="214.658" r="3.63827" transform="rotate(-180 88.046 214.658)" fill="#DDDDDD"/>
<circle cx="88.046" cy="172.454" r="3.63827" transform="rotate(-180 88.046 172.454)" fill="#DDDDDD"/>
<circle cx="88.046" cy="130.25" r="3.63827" transform="rotate(-180 88.046 130.25)" fill="#DDDDDD"/>
<circle cx="88.046" cy="88.0463" r="3.63827" transform="rotate(-180 88.046 88.0463)" fill="#DDDDDD"/>
<circle cx="88.046" cy="45.8422" r="3.63827" transform="rotate(-180 88.046 45.8422)" fill="#DDDDDD"/>
<circle cx="88.046" cy="3.63859" r="3.63827" transform="rotate(-180 88.046 3.63859)" fill="#DDDDDD"/>
<circle cx="721.105" cy="256.862" r="3.63827" transform="rotate(-180 721.105 256.862)" fill="#DDDDDD"/>
<circle cx="721.105" cy="214.658" r="3.63827" transform="rotate(-180 721.105 214.658)" fill="#DDDDDD"/>
<circle cx="721.105" cy="172.454" r="3.63827" transform="rotate(-180 721.105 172.454)" fill="#DDDDDD"/>
<circle cx="721.105" cy="130.25" r="3.63827" transform="rotate(-180 721.105 130.25)" fill="#DDDDDD"/>
<circle cx="721.105" cy="88.0458" r="3.63827" transform="rotate(-180 721.105 88.0458)" fill="#DDDDDD"/>
<circle cx="721.105" cy="45.8422" r="3.63827" transform="rotate(-180 721.105 45.8422)" fill="#DDDDDD"/>
<circle cx="721.105" cy="3.6381" r="3.63827" transform="rotate(-180 721.105 3.6381)" fill="#DDDDDD"/>
<circle cx="552.289" cy="256.862" r="3.63827" transform="rotate(-180 552.289 256.862)" fill="#DDDDDD"/>
<circle cx="552.289" cy="214.658" r="3.63827" transform="rotate(-180 552.289 214.658)" fill="#DDDDDD"/>
<circle cx="552.289" cy="172.454" r="3.63827" transform="rotate(-180 552.289 172.454)" fill="#DDDDDD"/>
<circle cx="552.289" cy="130.25" r="3.63827" transform="rotate(-180 552.289 130.25)" fill="#DDDDDD"/>
<circle cx="552.289" cy="88.0458" r="3.63827" transform="rotate(-180 552.289 88.0458)" fill="#DDDDDD"/>
<circle cx="552.289" cy="45.8422" r="3.63827" transform="rotate(-180 552.289 45.8422)" fill="#DDDDDD"/>
<circle cx="552.289" cy="3.6381" r="3.63827" transform="rotate(-180 552.289 3.6381)" fill="#DDDDDD"/>
<circle cx="383.473" cy="256.862" r="3.63827" transform="rotate(-180 383.473 256.862)" fill="#DDDDDD"/>
<circle cx="383.473" cy="214.658" r="3.63827" transform="rotate(-180 383.473 214.658)" fill="#DDDDDD"/>
<circle cx="383.473" cy="172.454" r="3.63827" transform="rotate(-180 383.473 172.454)" fill="#DDDDDD"/>
<circle cx="383.473" cy="130.25" r="3.63827" transform="rotate(-180 383.473 130.25)" fill="#DDDDDD"/>
<circle cx="383.473" cy="88.0458" r="3.63827" transform="rotate(-180 383.473 88.0458)" fill="#DDDDDD"/>
<circle cx="383.473" cy="45.8422" r="3.63827" transform="rotate(-180 383.473 45.8422)" fill="#DDDDDD"/>
<circle cx="383.473" cy="3.6381" r="3.63827" transform="rotate(-180 383.473 3.6381)" fill="#DDDDDD"/>
<circle cx="214.658" cy="256.862" r="3.63827" transform="rotate(-180 214.658 256.862)" fill="#DDDDDD"/>
<circle cx="214.658" cy="214.658" r="3.63827" transform="rotate(-180 214.658 214.658)" fill="#DDDDDD"/>
<circle cx="214.658" cy="172.454" r="3.63827" transform="rotate(-180 214.658 172.454)" fill="#DDDDDD"/>
<circle cx="214.658" cy="130.25" r="3.63827" transform="rotate(-180 214.658 130.25)" fill="#DDDDDD"/>
<circle cx="214.658" cy="88.0463" r="3.63827" transform="rotate(-180 214.658 88.0463)" fill="#DDDDDD"/>
<circle cx="214.658" cy="45.8422" r="3.63827" transform="rotate(-180 214.658 45.8422)" fill="#DDDDDD"/>
<circle cx="214.658" cy="3.63859" r="3.63827" transform="rotate(-180 214.658 3.63859)" fill="#DDDDDD"/>
<circle cx="45.8421" cy="256.862" r="3.63827" transform="rotate(-180 45.8421 256.862)" fill="#DDDDDD"/>
<circle cx="45.8421" cy="214.658" r="3.63827" transform="rotate(-180 45.8421 214.658)" fill="#DDDDDD"/>
<circle cx="45.8421" cy="172.454" r="3.63827" transform="rotate(-180 45.8421 172.454)" fill="#DDDDDD"/>
<circle cx="45.8421" cy="130.25" r="3.63827" transform="rotate(-180 45.8421 130.25)" fill="#DDDDDD"/>
<circle cx="45.8421" cy="88.0463" r="3.63827" transform="rotate(-180 45.8421 88.0463)" fill="#DDDDDD"/>
<circle cx="45.8421" cy="45.8422" r="3.63827" transform="rotate(-180 45.8421 45.8422)" fill="#DDDDDD"/>
<circle cx="45.8421" cy="3.63859" r="3.63827" transform="rotate(-180 45.8421 3.63859)" fill="#DDDDDD"/>
<circle cx="721.105" cy="256.862" r="3.63827" transform="rotate(-180 721.105 256.862)" fill="#DDDDDD"/>
<circle cx="721.105" cy="214.658" r="3.63827" transform="rotate(-180 721.105 214.658)" fill="#DDDDDD"/>
<circle cx="721.105" cy="172.454" r="3.63827" transform="rotate(-180 721.105 172.454)" fill="#DDDDDD"/>
<circle cx="721.105" cy="130.25" r="3.63827" transform="rotate(-180 721.105 130.25)" fill="#DDDDDD"/>
<circle cx="721.105" cy="88.0458" r="3.63827" transform="rotate(-180 721.105 88.0458)" fill="#DDDDDD"/>
<circle cx="721.105" cy="45.8422" r="3.63827" transform="rotate(-180 721.105 45.8422)" fill="#DDDDDD"/>
<circle cx="721.105" cy="3.6381" r="3.63827" transform="rotate(-180 721.105 3.6381)" fill="#DDDDDD"/>
<circle cx="552.289" cy="256.862" r="3.63827" transform="rotate(-180 552.289 256.862)" fill="#DDDDDD"/>
<circle cx="552.289" cy="214.658" r="3.63827" transform="rotate(-180 552.289 214.658)" fill="#DDDDDD"/>
<circle cx="552.289" cy="172.454" r="3.63827" transform="rotate(-180 552.289 172.454)" fill="#DDDDDD"/>
<circle cx="552.289" cy="130.25" r="3.63827" transform="rotate(-180 552.289 130.25)" fill="#DDDDDD"/>
<circle cx="552.289" cy="88.0458" r="3.63827" transform="rotate(-180 552.289 88.0458)" fill="#DDDDDD"/>
<circle cx="552.289" cy="45.8422" r="3.63827" transform="rotate(-180 552.289 45.8422)" fill="#DDDDDD"/>
<circle cx="552.289" cy="3.6381" r="3.63827" transform="rotate(-180 552.289 3.6381)" fill="#DDDDDD"/>
<circle cx="383.473" cy="256.862" r="3.63827" transform="rotate(-180 383.473 256.862)" fill="#DDDDDD"/>
<circle cx="383.473" cy="214.658" r="3.63827" transform="rotate(-180 383.473 214.658)" fill="#DDDDDD"/>
<circle cx="383.473" cy="172.454" r="3.63827" transform="rotate(-180 383.473 172.454)" fill="#DDDDDD"/>
<circle cx="383.473" cy="130.25" r="3.63827" transform="rotate(-180 383.473 130.25)" fill="#DDDDDD"/>
<circle cx="383.473" cy="88.0458" r="3.63827" transform="rotate(-180 383.473 88.0458)" fill="#DDDDDD"/>
<circle cx="383.473" cy="45.8422" r="3.63827" transform="rotate(-180 383.473 45.8422)" fill="#DDDDDD"/>
<circle cx="383.473" cy="3.6381" r="3.63827" transform="rotate(-180 383.473 3.6381)" fill="#DDDDDD"/>
<circle cx="214.658" cy="256.862" r="3.63827" transform="rotate(-180 214.658 256.862)" fill="#DDDDDD"/>
<circle cx="214.658" cy="214.658" r="3.63827" transform="rotate(-180 214.658 214.658)" fill="#DDDDDD"/>
<circle cx="214.658" cy="172.454" r="3.63827" transform="rotate(-180 214.658 172.454)" fill="#DDDDDD"/>
<circle cx="214.658" cy="130.25" r="3.63827" transform="rotate(-180 214.658 130.25)" fill="#DDDDDD"/>
<circle cx="214.658" cy="88.0463" r="3.63827" transform="rotate(-180 214.658 88.0463)" fill="#DDDDDD"/>
<circle cx="214.658" cy="45.8422" r="3.63827" transform="rotate(-180 214.658 45.8422)" fill="#DDDDDD"/>
<circle cx="214.658" cy="3.63859" r="3.63827" transform="rotate(-180 214.658 3.63859)" fill="#DDDDDD"/>
<circle cx="45.8421" cy="256.862" r="3.63827" transform="rotate(-180 45.8421 256.862)" fill="#DDDDDD"/>
<circle cx="45.8421" cy="214.658" r="3.63827" transform="rotate(-180 45.8421 214.658)" fill="#DDDDDD"/>
<circle cx="45.8421" cy="172.454" r="3.63827" transform="rotate(-180 45.8421 172.454)" fill="#DDDDDD"/>
<circle cx="45.8421" cy="130.25" r="3.63827" transform="rotate(-180 45.8421 130.25)" fill="#DDDDDD"/>
<circle cx="45.8421" cy="88.0463" r="3.63827" transform="rotate(-180 45.8421 88.0463)" fill="#DDDDDD"/>
<circle cx="45.8421" cy="45.8422" r="3.63827" transform="rotate(-180 45.8421 45.8422)" fill="#DDDDDD"/>
<circle cx="45.8421" cy="3.63859" r="3.63827" transform="rotate(-180 45.8421 3.63859)" fill="#DDDDDD"/>
<circle cx="678.901" cy="256.862" r="3.63827" transform="rotate(-180 678.901 256.862)" fill="#DDDDDD"/>
<circle cx="678.901" cy="214.658" r="3.63827" transform="rotate(-180 678.901 214.658)" fill="#DDDDDD"/>
<circle cx="678.901" cy="172.454" r="3.63827" transform="rotate(-180 678.901 172.454)" fill="#DDDDDD"/>
<circle cx="678.901" cy="130.25" r="3.63827" transform="rotate(-180 678.901 130.25)" fill="#DDDDDD"/>
<circle cx="678.901" cy="88.0458" r="3.63827" transform="rotate(-180 678.901 88.0458)" fill="#DDDDDD"/>
<circle cx="678.901" cy="45.8422" r="3.63827" transform="rotate(-180 678.901 45.8422)" fill="#DDDDDD"/>
<circle cx="678.901" cy="3.6381" r="3.63827" transform="rotate(-180 678.901 3.6381)" fill="#DDDDDD"/>
<circle cx="510.085" cy="256.862" r="3.63827" transform="rotate(-180 510.085 256.862)" fill="#DDDDDD"/>
<circle cx="510.085" cy="214.658" r="3.63827" transform="rotate(-180 510.085 214.658)" fill="#DDDDDD"/>
<circle cx="510.085" cy="172.454" r="3.63827" transform="rotate(-180 510.085 172.454)" fill="#DDDDDD"/>
<circle cx="510.085" cy="130.25" r="3.63827" transform="rotate(-180 510.085 130.25)" fill="#DDDDDD"/>
<circle cx="510.085" cy="88.0458" r="3.63827" transform="rotate(-180 510.085 88.0458)" fill="#DDDDDD"/>
<circle cx="510.085" cy="45.8422" r="3.63827" transform="rotate(-180 510.085 45.8422)" fill="#DDDDDD"/>
<circle cx="510.085" cy="3.6381" r="3.63827" transform="rotate(-180 510.085 3.6381)" fill="#DDDDDD"/>
<circle cx="341.27" cy="256.862" r="3.63827" transform="rotate(-180 341.27 256.862)" fill="#DDDDDD"/>
<circle cx="341.27" cy="214.658" r="3.63827" transform="rotate(-180 341.27 214.658)" fill="#DDDDDD"/>
<circle cx="341.27" cy="172.454" r="3.63827" transform="rotate(-180 341.27 172.454)" fill="#DDDDDD"/>
<circle cx="341.27" cy="130.25" r="3.63827" transform="rotate(-180 341.27 130.25)" fill="#DDDDDD"/>
<circle cx="341.27" cy="88.0458" r="3.63827" transform="rotate(-180 341.27 88.0458)" fill="#DDDDDD"/>
<circle cx="341.27" cy="45.8422" r="3.63827" transform="rotate(-180 341.27 45.8422)" fill="#DDDDDD"/>
<circle cx="341.27" cy="3.6381" r="3.63827" transform="rotate(-180 341.27 3.6381)" fill="#DDDDDD"/>
<circle cx="172.454" cy="256.862" r="3.63827" transform="rotate(-180 172.454 256.862)" fill="#DDDDDD"/>
<circle cx="172.454" cy="214.658" r="3.63827" transform="rotate(-180 172.454 214.658)" fill="#DDDDDD"/>
<circle cx="172.454" cy="172.454" r="3.63827" transform="rotate(-180 172.454 172.454)" fill="#DDDDDD"/>
<circle cx="172.454" cy="130.25" r="3.63827" transform="rotate(-180 172.454 130.25)" fill="#DDDDDD"/>
<circle cx="172.454" cy="88.0458" r="3.63827" transform="rotate(-180 172.454 88.0458)" fill="#DDDDDD"/>
<circle cx="172.454" cy="45.8422" r="3.63827" transform="rotate(-180 172.454 45.8422)" fill="#DDDDDD"/>
<circle cx="172.454" cy="3.6381" r="3.63827" transform="rotate(-180 172.454 3.6381)" fill="#DDDDDD"/>
<circle cx="3.63827" cy="256.862" r="3.63827" transform="rotate(-180 3.63827 256.862)" fill="#DDDDDD"/>
<circle cx="3.63814" cy="214.658" r="3.63827" transform="rotate(-180 3.63814 214.658)" fill="#DDDDDD"/>
<circle cx="3.63814" cy="172.454" r="3.63827" transform="rotate(-180 3.63814 172.454)" fill="#DDDDDD"/>
<circle cx="3.63814" cy="130.25" r="3.63827" transform="rotate(-180 3.63814 130.25)" fill="#DDDDDD"/>
<circle cx="3.63814" cy="88.0463" r="3.63827" transform="rotate(-180 3.63814 88.0463)" fill="#DDDDDD"/>
<circle cx="3.63814" cy="45.8422" r="3.63827" transform="rotate(-180 3.63814 45.8422)" fill="#DDDDDD"/>
<circle cx="3.63814" cy="3.63859" r="3.63827" transform="rotate(-180 3.63814 3.63859)" fill="#DDDDDD"/>
<circle cx="678.901" cy="256.862" r="3.63827" transform="rotate(-180 678.901 256.862)" fill="#DDDDDD"/>
<circle cx="678.901" cy="214.658" r="3.63827" transform="rotate(-180 678.901 214.658)" fill="#DDDDDD"/>
<circle cx="678.901" cy="172.454" r="3.63827" transform="rotate(-180 678.901 172.454)" fill="#DDDDDD"/>
<circle cx="678.901" cy="130.25" r="3.63827" transform="rotate(-180 678.901 130.25)" fill="#DDDDDD"/>
<circle cx="678.901" cy="88.0458" r="3.63827" transform="rotate(-180 678.901 88.0458)" fill="#DDDDDD"/>
<circle cx="678.901" cy="45.8422" r="3.63827" transform="rotate(-180 678.901 45.8422)" fill="#DDDDDD"/>
<circle cx="678.901" cy="3.6381" r="3.63827" transform="rotate(-180 678.901 3.6381)" fill="#DDDDDD"/>
<circle cx="510.085" cy="256.862" r="3.63827" transform="rotate(-180 510.085 256.862)" fill="#DDDDDD"/>
<circle cx="510.085" cy="214.658" r="3.63827" transform="rotate(-180 510.085 214.658)" fill="#DDDDDD"/>
<circle cx="510.085" cy="172.454" r="3.63827" transform="rotate(-180 510.085 172.454)" fill="#DDDDDD"/>
<circle cx="510.085" cy="130.25" r="3.63827" transform="rotate(-180 510.085 130.25)" fill="#DDDDDD"/>
<circle cx="510.085" cy="88.0458" r="3.63827" transform="rotate(-180 510.085 88.0458)" fill="#DDDDDD"/>
<circle cx="510.085" cy="45.8422" r="3.63827" transform="rotate(-180 510.085 45.8422)" fill="#DDDDDD"/>
<circle cx="510.085" cy="3.6381" r="3.63827" transform="rotate(-180 510.085 3.6381)" fill="#DDDDDD"/>
<circle cx="341.27" cy="256.862" r="3.63827" transform="rotate(-180 341.27 256.862)" fill="#DDDDDD"/>
<circle cx="341.27" cy="214.658" r="3.63827" transform="rotate(-180 341.27 214.658)" fill="#DDDDDD"/>
<circle cx="341.27" cy="172.454" r="3.63827" transform="rotate(-180 341.27 172.454)" fill="#DDDDDD"/>
<circle cx="341.27" cy="130.25" r="3.63827" transform="rotate(-180 341.27 130.25)" fill="#DDDDDD"/>
<circle cx="341.27" cy="88.0458" r="3.63827" transform="rotate(-180 341.27 88.0458)" fill="#DDDDDD"/>
<circle cx="341.27" cy="45.8422" r="3.63827" transform="rotate(-180 341.27 45.8422)" fill="#DDDDDD"/>
<circle cx="341.27" cy="3.6381" r="3.63827" transform="rotate(-180 341.27 3.6381)" fill="#DDDDDD"/>
<circle cx="172.454" cy="256.862" r="3.63827" transform="rotate(-180 172.454 256.862)" fill="#DDDDDD"/>
<circle cx="172.454" cy="214.658" r="3.63827" transform="rotate(-180 172.454 214.658)" fill="#DDDDDD"/>
<circle cx="172.454" cy="172.454" r="3.63827" transform="rotate(-180 172.454 172.454)" fill="#DDDDDD"/>
<circle cx="172.454" cy="130.25" r="3.63827" transform="rotate(-180 172.454 130.25)" fill="#DDDDDD"/>
<circle cx="172.454" cy="88.0458" r="3.63827" transform="rotate(-180 172.454 88.0458)" fill="#DDDDDD"/>
<circle cx="172.454" cy="45.8422" r="3.63827" transform="rotate(-180 172.454 45.8422)" fill="#DDDDDD"/>
<circle cx="172.454" cy="3.6381" r="3.63827" transform="rotate(-180 172.454 3.6381)" fill="#DDDDDD"/>
<circle cx="3.63827" cy="256.862" r="3.63827" transform="rotate(-180 3.63827 256.862)" fill="#DDDDDD"/>
<circle cx="3.63814" cy="214.658" r="3.63827" transform="rotate(-180 3.63814 214.658)" fill="#DDDDDD"/>
<circle cx="3.63814" cy="172.454" r="3.63827" transform="rotate(-180 3.63814 172.454)" fill="#DDDDDD"/>
<circle cx="3.63814" cy="130.25" r="3.63827" transform="rotate(-180 3.63814 130.25)" fill="#DDDDDD"/>
<circle cx="3.63814" cy="88.0463" r="3.63827" transform="rotate(-180 3.63814 88.0463)" fill="#DDDDDD"/>
<circle cx="3.63814" cy="45.8422" r="3.63827" transform="rotate(-180 3.63814 45.8422)" fill="#DDDDDD"/>
<circle cx="3.63814" cy="3.63859" r="3.63827" transform="rotate(-180 3.63814 3.63859)" fill="#DDDDDD"/>
</svg>
