<svg width="70" height="70" viewBox="0 0 70 70" fill="none" xmlns="http://www.w3.org/2000/svg">
<path d="M4.375 4.375H65.625V65.625H4.375V4.375Z" fill="#F5DE19"/>
<path d="M45.5199 52.2267C46.0418 53.2868 46.8526 54.1778 47.8589 54.7971C48.8651 55.4163 50.0259 55.7386 51.2074 55.7267C53.5918 55.7267 55.1165 54.5346 55.1165 52.883C55.1165 50.9142 53.5502 50.2099 50.9252 49.0614L49.4858 48.4446C45.3296 46.6749 42.5733 44.4589 42.5733 39.7733C42.5733 35.4574 45.8546 32.1696 51.0018 32.1696C52.668 32.0492 54.3328 32.4222 55.7885 33.2418C57.2441 34.0614 58.4263 35.2915 59.1874 36.7786L54.6877 39.6552C54.3946 38.9178 53.8843 38.287 53.2245 37.8463C52.5646 37.4056 51.7864 37.1759 50.993 37.1877C50.6469 37.153 50.2973 37.1909 49.9666 37.2988C49.6359 37.4067 49.3313 37.5823 49.0722 37.8144C48.8131 38.0466 48.6052 38.3301 48.4617 38.6471C48.3183 38.964 48.2424 39.3073 48.239 39.6552C48.239 41.3811 49.3087 42.0811 51.7783 43.1552L53.2177 43.7721C58.109 45.8699 60.874 48.0071 60.874 52.813C60.874 57.9952 56.803 60.8346 51.3365 60.8346C49.2065 60.9703 47.0828 60.4867 45.2216 59.4422C43.3604 58.3976 41.8412 56.8368 40.8474 54.948L45.5199 52.2267ZM25.1871 52.7255C26.0905 54.3289 26.913 55.6852 28.8905 55.6852C30.7805 55.6852 31.9749 54.9458 31.9749 52.0692V32.4977H37.7302V52.1458C37.7302 58.1046 34.2302 60.8171 29.1355 60.8171C27.3347 60.9155 25.5462 60.4667 24.0052 59.5297C22.4641 58.5926 21.2427 57.2112 20.5015 55.5671L25.1871 52.7255Z" fill="black"/>
</svg>
