<svg width="36" height="36" viewBox="0 0 36 36" fill="none" xmlns="http://www.w3.org/2000/svg">
<path d="M30.705 2.99997H5.295C5.00936 2.996 4.72575 3.04834 4.46034 3.15399C4.19494 3.25965 3.95295 3.41655 3.74819 3.61573C3.54343 3.81492 3.37992 4.05249 3.26698 4.31488C3.15405 4.57727 3.09391 4.85933 3.09 5.14497V30.855C3.09391 31.1406 3.15405 31.4227 3.26698 31.6851C3.37992 31.9474 3.54343 32.185 3.74819 32.3842C3.95295 32.5834 4.19494 32.7403 4.46034 32.8459C4.72575 32.9516 5.00936 33.0039 5.295 33H30.705C30.9906 33.0039 31.2742 32.9516 31.5396 32.8459C31.805 32.7403 32.047 32.5834 32.2518 32.3842C32.4566 32.185 32.6201 31.9474 32.733 31.6851C32.8459 31.4227 32.9061 31.1406 32.91 30.855V5.14497C32.9061 4.85933 32.8459 4.57727 32.733 4.31488C32.6201 4.05249 32.4566 3.81492 32.2518 3.61573C32.047 3.41655 31.805 3.25965 31.5396 3.15399C31.2742 3.04834 30.9906 2.996 30.705 2.99997ZM12.135 28.11H7.635V14.61H12.135V28.11ZM9.885 12.72C9.26439 12.72 8.6692 12.4734 8.23037 12.0346C7.79153 11.5958 7.545 11.0006 7.545 10.38C7.545 9.75936 7.79153 9.16417 8.23037 8.72534C8.6692 8.2865 9.26439 8.03997 9.885 8.03997C10.2145 8.00259 10.5483 8.03525 10.8643 8.13579C11.1804 8.23633 11.4716 8.4025 11.719 8.62341C11.9664 8.84432 12.1643 9.11498 12.2998 9.41769C12.4353 9.72039 12.5054 10.0483 12.5054 10.38C12.5054 10.7116 12.4353 11.0395 12.2998 11.3422C12.1643 11.6449 11.9664 11.9156 11.719 12.1365C11.4716 12.3574 11.1804 12.5236 10.8643 12.6241C10.5483 12.7247 10.2145 12.7573 9.885 12.72ZM28.365 28.11H23.865V20.865C23.865 19.05 23.22 17.865 21.585 17.865C21.079 17.8687 20.5863 18.0274 20.1732 18.3197C19.7602 18.6121 19.4467 19.024 19.275 19.5C19.1576 19.8525 19.1068 20.2238 19.125 20.595V28.095H14.625V14.595H19.125V16.5C19.5338 15.7906 20.1284 15.2062 20.8447 14.8098C21.561 14.4133 22.3718 14.2197 23.19 14.25C26.19 14.25 28.365 16.185 28.365 20.34V28.11Z" fill="#3772FF"/>
</svg>
