<svg width="558" height="449" viewBox="0 0 558 449" fill="none" xmlns="http://www.w3.org/2000/svg">
<g clip-path="url(#clip0_2047_852)">
<path d="M207 250.286V196H215.256V250.286H207Z" fill="#022B3E"/>
<path d="M241.48 250.874C235.463 250.874 230.611 249.015 226.925 245.259C223.239 241.54 221.396 236.646 221.396 230.537C221.396 224.428 223.239 219.532 226.963 215.776C230.649 212.019 235.5 210.16 241.48 210.16C247.46 210.16 252.312 212.057 256.035 215.814C259.759 219.571 261.602 224.504 261.602 230.537C261.602 236.569 259.759 241.541 256.073 245.259C252.349 249.016 247.498 250.874 241.48 250.874ZM241.48 243.741C244.94 243.741 247.761 242.489 249.905 240.022C252.049 237.556 253.101 234.407 253.101 230.536C253.101 226.665 252.048 223.478 249.905 221.011C247.76 218.545 244.94 217.331 241.48 217.331C238.02 217.331 235.237 218.545 233.131 221.011C230.987 223.478 229.935 226.627 229.935 230.536C229.935 234.444 230.988 237.593 233.131 240.06C235.238 242.526 238.02 243.74 241.48 243.74V243.741Z" fill="#022B3E"/>
<path d="M302.236 215.665C305.67 219.316 307.406 224.299 307.406 230.613C307.406 236.927 305.67 241.606 302.161 245.371C298.652 249.137 294.199 251 288.728 251C283.256 251 278.728 248.908 275.823 244.762L274.805 250.543H267.56V196H275.898V216.578C279.029 212.318 283.331 210.188 288.727 210.188C294.123 210.188 298.764 212.015 302.235 215.666L302.236 215.665ZM295.746 240.237C297.859 237.765 298.915 234.569 298.915 230.614C298.915 226.659 297.858 223.539 295.708 221.067C293.557 218.594 290.766 217.378 287.332 217.378C283.898 217.378 281.106 218.594 278.994 221.029C276.88 223.501 275.824 226.658 275.824 230.538C275.824 234.419 276.881 237.728 278.994 240.2C281.107 242.673 283.898 243.928 287.332 243.928C290.766 243.928 293.596 242.711 295.746 240.239V240.237Z" fill="#022B3E"/>
<path d="M322.784 250.643L307.426 210.615H316.31L327.301 240.855L338.029 210.615H346.913L329.032 256.639C328.317 258.422 327.715 259.864 327.225 260.888C326.699 261.912 326.058 262.823 325.305 263.696C323.8 265.365 321.918 265.972 319.057 265.972H310.135V258.574H315.969C317.55 258.574 318.68 258.308 319.319 257.815C319.959 257.321 320.6 256.222 321.239 254.552L322.783 250.643H322.784Z" fill="#022B3E"/>
</g>
<defs>
<clipPath id="clip0_2047_852">
<rect width="140" height="70" fill="white" transform="translate(207 196)"/>
</clipPath>
</defs>
</svg>
