<svg width="558" height="449" viewBox="0 0 558 449" fill="none" xmlns="http://www.w3.org/2000/svg">
<path d="M188.92 244.068V216.608L176.595 233.041H175.19L163.135 216.554V244.068H156V206.23H164.216L176.054 222.5L187.893 206.23H196.055V244.068H188.92Z" fill="white"/>
<path d="M210.716 217.257V244.014H204.121V217.257H210.716ZM203.527 209.851C203.527 214.987 211.311 214.987 211.311 209.851C211.311 204.716 203.527 204.716 203.527 209.851Z" fill="white"/>
<path d="M244.225 244.014H237.63V230.068C237.63 226.014 235.414 222.933 231.198 222.933C227.144 222.933 224.387 226.338 224.387 230.392V244.014H217.846V217.311H223.738L224.171 220.933C226.873 218.284 229.576 216.933 232.928 216.933C239.198 216.933 244.225 221.635 244.225 230.014V244.014Z" fill="white"/>
<path d="M263.592 222.879C259.376 222.879 256.024 225.852 256.024 230.663C256.024 235.311 259.376 238.501 263.592 238.501C267.754 238.501 271.322 235.474 271.322 230.663C271.322 226.014 267.754 222.879 263.592 222.879ZM271.754 206.23H278.349V244.014H272.187L271.754 240.339C269.7 243.528 266.403 244.609 263.16 244.609C255.322 244.609 249.43 239.42 249.43 230.663C249.43 221.473 255.214 216.716 262.997 216.716C265.808 216.716 270.187 218.23 271.754 220.987V206.23Z" fill="white"/>
<path d="M300.225 238.284C304.712 238.284 307.793 234.879 307.793 230.717C307.793 226.554 304.982 223.149 300.225 223.149C295.468 223.149 292.657 226.554 292.657 230.717C292.657 234.879 295.738 238.284 300.225 238.284ZM292.063 256.231H285.468V217.365H291.63L292.063 221.041C294.117 218.068 297.684 216.77 300.711 216.77C308.928 216.77 314.387 222.879 314.387 230.717C314.387 238.501 309.468 244.663 300.928 244.663C298.117 244.663 293.955 243.798 292.063 240.879V256.231Z" fill="white"/>
<path d="M351.506 217.365H357.614L358.101 220.446C360.155 217.149 362.912 216.662 365.614 216.662C368.371 216.662 371.02 217.743 372.479 219.203L369.506 224.933C368.155 223.798 366.912 223.203 364.749 223.203C361.29 223.203 358.101 225.041 358.101 229.96V244.014H351.506V217.365Z" fill="white"/>
<path d="M378.973 210.554L385.567 209.851V217.419H392.919V223.095H385.513V234.609C385.513 237.149 386.919 238.393 388.973 238.393C390 238.393 391.189 238.068 392.162 237.582L394 243.203C392.108 243.96 390.54 244.285 388.54 244.339C382.757 244.555 378.973 241.257 378.973 234.609V223.095H374V217.419H378.973V210.554Z" fill="white"/>
<path d="M339.256 230.681C339.256 226.626 336.821 222.857 332.002 222.857C327.183 222.857 324.761 226.639 324.761 230.681H318.165C318.165 223.018 323.357 216.807 332.014 216.807C340.672 216.807 345.913 223.018 345.913 230.681H339.256Z" fill="white"/>
<ellipse cx="332.039" cy="233.838" rx="13.8741" ry="1.53156" fill="white"/>
<ellipse cx="332.039" cy="237.622" rx="12.4327" ry="1.17119" fill="white"/>
<ellipse cx="332.039" cy="240.865" rx="9.72992" ry="0.99101" fill="white"/>
<ellipse cx="332.039" cy="243.568" rx="7.38753" ry="0.630643" fill="white"/>
</svg>
