<svg width="70" height="70" viewBox="0 0 70 70" fill="none" xmlns="http://www.w3.org/2000/svg">
<g clip-path="url(#clip0_1908_353)">
<mask id="mask0_1908_353" style="mask-type:luminance" maskUnits="userSpaceOnUse" x="0" y="0" width="70" height="70">
<path d="M35 70C54.33 70 70 54.33 70 35C70 15.67 54.33 0 35 0C15.67 0 0 15.67 0 35C0 54.33 15.67 70 35 70Z" fill="white"/>
</mask>
<g mask="url(#mask0_1908_353)">
<path d="M35 70C54.33 70 70 54.33 70 35C70 15.67 54.33 0 35 0C15.67 0 0 15.67 0 35C0 54.33 15.67 70 35 70Z" fill="black"/>
<path d="M58.1421 61.2577L26.8885 21H21V48.9882H25.7108V26.9828L54.4441 64.1063C55.7386 63.2398 56.974 62.2882 58.1421 61.2577Z" fill="url(#paint0_linear_1908_353)"/>
<path d="M44.7222 21H49.3889V49H44.7222V21Z" fill="url(#paint1_linear_1908_353)"/>
</g>
</g>
<defs>
<linearGradient id="paint0_linear_1908_353" x1="2087.33" y1="2451.55" x2="3327.65" y2="3988.88" gradientUnits="userSpaceOnUse">
<stop stop-color="white"/>
<stop offset="1" stop-color="white" stop-opacity="0"/>
</linearGradient>
<linearGradient id="paint1_linear_1908_353" x1="278.06" y1="21" x2="270.164" y2="2077.23" gradientUnits="userSpaceOnUse">
<stop stop-color="white"/>
<stop offset="1" stop-color="white" stop-opacity="0"/>
</linearGradient>
<clipPath id="clip0_1908_353">
<rect width="70" height="70" fill="white"/>
</clipPath>
</defs>
</svg>
