<svg width="70" height="70" viewBox="0 0 70 70" fill="none" xmlns="http://www.w3.org/2000/svg">
<path d="M0 35C0 45.1681 15.6702 53.4117 35 53.4117C54.3298 53.4117 70 45.1681 70 35C70 24.832 54.3293 16.5884 35 16.5884C15.6702 16.5884 0 24.832 0 35Z" fill="url(#paint0_radial_2012_332)"/>
<path d="M35 52.0445C53.5746 52.0445 68.6328 44.4128 68.6328 35C68.6328 25.5861 53.5746 17.9556 35 17.9556C16.4254 17.9556 1.36719 25.5861 1.36719 35C1.36719 44.4128 16.4254 52.0445 35 52.0445Z" fill="#777BB3"/>
<path d="M19.0162 37.1129C20.5436 37.1129 21.6833 36.8313 22.4046 36.2762C23.1188 35.7261 23.6116 34.7739 23.8702 33.4461C24.1109 32.2047 24.019 31.3385 23.5968 30.8704C23.1659 30.3924 22.2334 30.1501 20.8258 30.1501H18.3845L17.0321 37.1129H19.0162ZM11.0323 45.6896C10.9763 45.6895 10.921 45.677 10.8704 45.653C10.8198 45.6291 10.7751 45.5942 10.7396 45.5509C10.704 45.5076 10.6785 45.457 10.6648 45.4027C10.6511 45.3484 10.6496 45.2917 10.6605 45.2368L14.2463 26.7863C14.2633 26.7 14.3096 26.6223 14.3774 26.5664C14.4452 26.5104 14.5303 26.4797 14.6182 26.4795H22.3477C24.7769 26.4795 26.5849 27.139 27.7219 28.44C28.8637 29.7471 29.217 31.5758 28.7702 33.8732C28.5881 34.8089 28.2753 35.6779 27.8405 36.4567C27.388 37.2577 26.8105 37.9814 26.1299 38.6004C25.2926 39.3836 24.3449 39.9523 23.3151 40.2864C22.3023 40.6168 21.0008 40.7841 19.4487 40.7841H16.3184L15.4248 45.3822C15.408 45.4688 15.3615 45.5467 15.2935 45.6028C15.2255 45.6589 15.14 45.6895 15.0519 45.6896H11.0323Z" fill="black"/>
<path d="M18.6976 30.5298H20.8255C22.5247 30.5298 23.1147 30.9028 23.3154 31.1254C23.6474 31.494 23.7108 32.2722 23.4964 33.3741C23.2564 34.6084 22.8112 35.484 22.173 35.9751C21.52 36.4782 20.4569 36.733 19.0159 36.733H17.4923L18.6976 30.5298ZM22.3475 26.1002H14.6185C14.4422 26.1002 14.2714 26.1614 14.1354 26.2735C13.9993 26.3855 13.9064 26.5413 13.8725 26.7143L10.2867 45.1653C10.2655 45.2752 10.2689 45.3884 10.2965 45.4969C10.3242 45.6054 10.3754 45.7064 10.4466 45.7927C10.5178 45.8791 10.6072 45.9487 10.7084 45.9965C10.8096 46.0443 10.9201 46.0691 11.0321 46.0693H15.0516C15.2278 46.0691 15.3985 46.0077 15.5345 45.8956C15.6705 45.7835 15.7633 45.6276 15.797 45.4546L16.631 41.1638H19.4479C21.0404 41.1638 22.3814 40.9899 23.433 40.6476C24.5142 40.2965 25.5089 39.7009 26.3894 38.8773C27.0983 38.2316 27.7 37.4771 28.1717 36.6423C28.6261 35.8291 28.9532 34.9213 29.1424 33.9456C29.6127 31.5268 29.2304 29.5903 28.0071 28.1903C26.7952 26.8029 24.891 26.0996 22.3475 26.0996V26.1002ZM16.5708 37.4921H19.0159C20.6363 37.4921 21.8432 37.1875 22.6362 36.5761C23.4297 35.9658 23.964 34.9464 24.2429 33.5185C24.5082 32.147 24.3873 31.1795 23.8793 30.6157C23.3701 30.0524 22.3529 29.7702 20.8255 29.7702H18.0714L16.5708 37.4921ZM22.348 26.8581C24.6733 26.8581 26.3692 27.469 27.4356 28.6891C28.502 29.9097 28.8225 31.6132 28.3981 33.8002C28.222 34.7014 27.9261 35.525 27.5094 36.2709C27.0916 37.018 26.5469 37.7005 25.8737 38.3201C25.0709 39.0709 24.18 39.6063 23.1984 39.9252C22.2173 40.2445 20.9671 40.4037 19.4485 40.4037H16.0054L15.0521 45.3091H11.0326L14.619 26.8581H22.348Z" fill="white"/>
<path d="M37.9856 40.7843C37.9296 40.7844 37.8742 40.772 37.8235 40.7482C37.7728 40.7243 37.728 40.6895 37.6923 40.6462C37.6567 40.603 37.631 40.5524 37.6173 40.4981C37.6035 40.4437 37.6019 40.387 37.6127 40.332L39.1986 32.1683C39.3501 31.3917 39.3129 30.835 39.0947 30.5988C38.9607 30.4549 38.5593 30.2138 37.372 30.2138H34.4977L32.5037 40.4775C32.4866 40.5639 32.44 40.6417 32.3719 40.6976C32.3038 40.7534 32.2183 40.7839 32.1302 40.7837H28.1435C28.0875 40.7838 28.0322 40.7714 27.9815 40.7476C27.9308 40.7238 27.886 40.689 27.8503 40.6459C27.8147 40.6027 27.789 40.5522 27.7751 40.4979C27.7612 40.4437 27.7594 40.387 27.77 40.332L31.3564 21.881C31.3734 21.7946 31.4199 21.7167 31.4879 21.6608C31.5559 21.6048 31.6413 21.5742 31.7294 21.5742H35.7161C35.7721 21.5742 35.8274 21.5865 35.8781 21.6104C35.9288 21.6342 35.9736 21.6689 36.0093 21.7121C36.0449 21.7553 36.0707 21.8058 36.0845 21.86C36.0984 21.9143 36.1002 21.9709 36.0896 22.0259L35.2245 26.4797H38.3159C40.6713 26.4797 42.2682 26.8942 43.1984 27.749C44.1462 28.6202 44.4426 30.013 44.0778 31.8905L42.4093 40.4775C42.3922 40.5638 42.3457 40.6416 42.2777 40.6974C42.2096 40.7533 42.1243 40.7838 42.0363 40.7837L37.9856 40.7843Z" fill="black"/>
<path d="M35.7162 21.1943H31.7289C31.5526 21.1944 31.3818 21.2557 31.2457 21.3679C31.1096 21.48 31.0167 21.636 30.983 21.809L27.3971 40.2595C27.3759 40.3694 27.3792 40.4827 27.4068 40.5913C27.4344 40.6998 27.4856 40.8009 27.5568 40.8873C27.628 40.9737 27.7175 41.0433 27.8187 41.0912C27.92 41.139 28.0305 41.1639 28.1425 41.164H32.1298C32.3061 41.164 32.477 41.1026 32.613 40.9905C32.7491 40.8784 32.842 40.7224 32.8757 40.5493L34.81 30.5935H37.3705C38.5561 30.5935 38.8055 30.8467 38.8148 30.8582C38.887 30.9347 38.9816 31.2929 38.8252 32.0963L37.2392 40.2595C37.218 40.3695 37.2213 40.4828 37.2489 40.5914C37.2765 40.7 37.3278 40.8011 37.3991 40.8875C37.4704 40.9739 37.5599 41.0435 37.6612 41.0913C37.7625 41.1391 37.8732 41.164 37.9852 41.164H42.0364C42.2127 41.1639 42.3834 41.1025 42.5193 40.9903C42.6553 40.8782 42.7481 40.7223 42.7818 40.5493L44.4503 31.9634C44.8414 29.9476 44.5067 28.4361 43.455 27.4697C42.451 26.5477 40.7699 26.0998 38.3155 26.0998H35.685L36.4621 22.0994C36.4835 21.9894 36.4803 21.876 36.4527 21.7674C36.4251 21.6587 36.3738 21.5575 36.3025 21.471C36.2312 21.3845 36.1417 21.3149 36.0403 21.267C35.939 21.2192 35.8283 21.1944 35.7162 21.1943ZM35.7162 21.9545L34.763 26.8589H38.3155C40.5506 26.8589 42.0928 27.2493 42.9404 28.0292C43.7897 28.809 44.0435 30.0718 43.7049 31.819L42.0359 40.4044H37.9852L39.5717 32.2407C39.7521 31.3121 39.6854 30.6788 39.3721 30.3408C39.0587 30.0034 38.3915 29.8344 37.3716 29.8344H34.1839L32.1298 40.4039H28.142L31.7284 21.9529H35.7162V21.9545Z" fill="white"/>
<path d="M50.3867 37.1129C51.9141 37.1129 53.0544 36.8313 53.7762 36.2762C54.4894 35.7261 54.9826 34.7739 55.2413 33.4461C55.4819 32.2047 55.3906 31.3385 54.9679 30.8704C54.5369 30.3924 53.6045 30.1501 52.1969 30.1501H49.7562L48.4027 37.1129H50.3867ZM42.4045 45.6896C42.3484 45.6897 42.293 45.6773 42.2422 45.6534C42.1915 45.6295 42.1467 45.5946 42.111 45.5513C42.0753 45.508 42.0497 45.4574 42.036 45.403C42.0222 45.3486 42.0207 45.2918 42.0316 45.2368L45.6174 26.7863C45.6344 26.6999 45.6809 26.622 45.7489 26.566C45.8169 26.5101 45.9023 26.4795 45.9904 26.4795H53.7194C56.1486 26.4795 57.9566 27.139 59.093 28.44C60.2354 29.7471 60.5881 31.5758 60.1413 33.8732C59.9706 34.7782 59.6569 35.6503 59.2122 36.4567C58.7594 37.2576 58.182 37.9812 57.5016 38.6004C56.6648 39.3836 55.716 39.9523 54.6868 40.2864C53.674 40.6168 52.3724 40.7841 50.8198 40.7841H47.6901L46.797 45.3822C46.7801 45.4689 46.7336 45.5469 46.6655 45.603C46.5973 45.6591 46.5118 45.6897 46.4235 45.6896H42.4045Z" fill="black"/>
<path d="M50.0692 30.5298H52.1971C53.8962 30.5298 54.4863 30.9028 54.6865 31.1254C55.0201 31.494 55.0824 32.2722 54.8686 33.3741C54.6279 34.6084 54.1828 35.484 53.5446 35.9751C52.8911 36.4782 51.8279 36.733 50.3875 36.733H48.8639L50.0692 30.5298ZM53.719 26.1002H45.9901C45.8139 26.1003 45.6433 26.1616 45.5073 26.2736C45.3713 26.3857 45.2785 26.5414 45.2447 26.7143L41.6583 45.1653C41.6371 45.2753 41.6404 45.3885 41.6681 45.497C41.6958 45.6055 41.7471 45.7066 41.8184 45.793C41.8896 45.8793 41.9791 45.9489 42.0804 45.9966C42.1816 46.0444 42.2922 46.0692 42.4042 46.0693H46.4237C46.6 46.0691 46.7707 46.0077 46.9066 45.8956C47.0426 45.7835 47.1354 45.6276 47.1691 45.4546L48.0031 41.1638H50.8195C52.4115 41.1638 53.7529 40.9899 54.804 40.6476C55.8858 40.2965 56.8805 39.7009 57.7615 38.8768C58.4702 38.2312 59.0717 37.4769 59.5433 36.6423C59.9983 35.8291 60.3242 34.9213 60.514 33.9456C60.9843 31.5268 60.6026 29.5903 59.3787 28.1903C58.1668 26.8029 56.2631 26.0996 53.7185 26.0996L53.719 26.1002ZM47.9424 37.4921H50.3869C52.0079 37.4921 53.2143 37.1875 54.0083 36.5761C54.8013 35.9658 55.3362 34.9464 55.614 33.5185C55.8803 32.147 55.7594 31.1795 55.2503 30.6157C54.7417 30.0524 53.724 29.7702 52.1971 29.7702H49.4436L47.9424 37.4921ZM53.719 26.8581C56.0438 26.8581 57.7408 27.469 58.8066 28.6891C59.873 29.9097 60.194 31.6132 59.7686 33.8002C59.5936 34.7014 59.2972 35.525 58.8804 36.2709C58.4632 37.018 57.918 37.7005 57.2442 38.3201C56.4419 39.0709 55.5505 39.6063 54.5689 39.9252C53.5883 40.2445 52.3387 40.4037 50.8195 40.4037H47.3769L46.4226 45.3091H42.4031L45.9895 26.8581H53.719Z" fill="white"/>
<defs>
<radialGradient id="paint0_radial_2012_332" cx="0" cy="0" r="1" gradientUnits="userSpaceOnUse" gradientTransform="translate(21.0142 23.0612) scale(45.9601 45.9601)">
<stop stop-color="#AEB2D5"/>
<stop offset="0.3" stop-color="#AEB2D5"/>
<stop offset="0.75" stop-color="#484C89"/>
<stop offset="1" stop-color="#484C89"/>
</radialGradient>
</defs>
</svg>
