<svg width="73" height="65" viewBox="0 0 73 65" fill="none" xmlns="http://www.w3.org/2000/svg">
<g clip-path="url(#clip0_1918_442)">
<path d="M60.0205 21.0463C59.2437 20.7798 58.4602 20.5329 57.6709 20.3059C57.8035 19.7642 57.9255 19.2291 58.0339 18.7034C59.8127 10.0707 58.6498 3.11596 54.6779 0.826135C50.8696 -1.36904 44.6415 0.919928 38.3515 6.39276C37.7316 6.93309 37.1255 7.489 36.5336 8.05995C36.1375 7.68029 35.7343 7.30799 35.3243 6.94326C28.7321 1.09155 22.1244 -1.37474 18.1568 0.921639C14.3519 3.12366 13.2253 9.66157 14.8267 17.843C14.986 18.6533 15.1659 19.4594 15.3662 20.2606C14.4309 20.5263 13.5284 20.8091 12.6646 21.1101C4.93577 23.8042 0 28.0261 0 32.4053C0 36.9282 5.29877 41.4648 13.3487 44.2156C14.0014 44.4377 14.6594 44.6435 15.3223 44.8328C15.107 45.6957 14.9159 46.5644 14.7491 47.438C13.2224 55.4774 14.4146 61.8608 18.2092 64.0489C22.1284 66.3085 28.7064 63.9862 35.1113 58.3885C35.6307 57.9334 36.1386 57.4654 36.6346 56.985C37.2755 57.6032 37.9335 58.2035 38.6079 58.785C44.8123 64.1225 50.9397 66.2777 54.7306 64.0837C58.6461 61.8175 59.9187 54.96 58.2665 46.6169C58.1364 45.9633 57.9904 45.3129 57.8288 44.6664C58.2908 44.5295 58.7442 44.3887 59.1862 44.2421C67.5549 41.4702 73 36.9887 73 32.4053C73 28.0101 67.9048 23.7597 60.0205 21.0463ZM58.2055 41.2829C57.8063 41.4149 57.3968 41.5424 56.9794 41.6664C56.0554 38.7422 54.8087 35.6331 53.2829 32.4204C54.7389 29.2844 55.9377 26.2149 56.8356 23.3099C57.5825 23.526 58.307 23.7537 59.0057 23.9941C65.761 26.3192 69.8815 29.7565 69.8815 32.4053C69.8815 35.2265 65.4314 38.889 58.2055 41.2829ZM55.2074 47.2225C55.938 50.9115 56.042 54.247 55.5581 56.8547C55.1236 59.1978 54.2493 60.7598 53.168 61.3856C50.8676 62.717 45.9478 60.9865 40.6419 56.4217C40.0147 55.881 39.4026 55.3229 38.8063 54.7482C40.8635 52.4991 42.9192 49.8846 44.9255 46.9807C48.4546 46.6677 51.7887 46.1557 54.8122 45.4569C54.9578 46.0422 55.0896 46.6309 55.2074 47.2225ZM24.8873 61.1555C22.6397 61.9489 20.8495 61.9717 19.7673 61.348C17.4647 60.0203 16.5074 54.8947 17.8131 48.0196C17.9684 47.2071 18.1461 46.3992 18.3461 45.5966C21.3362 46.258 24.6461 46.7335 28.1834 47.0203C30.2035 49.8618 32.3185 52.4735 34.45 54.7605C33.997 55.1987 33.5333 55.6257 33.0593 56.0411C30.2268 58.5162 27.3887 60.2723 24.8873 61.1555ZM14.3576 41.2655C10.798 40.0491 7.85834 38.4683 5.84342 36.7432C4.03268 35.1932 3.11875 33.654 3.11875 32.4053C3.11875 29.7477 7.08157 26.358 13.6912 24.0542C14.4934 23.7748 15.3329 23.5111 16.204 23.2637C17.1176 26.2343 18.3159 29.3403 19.7619 32.4811C18.2971 35.6684 17.0817 38.8241 16.1592 41.8297C15.5542 41.6565 14.9534 41.4683 14.3576 41.2655ZM17.8873 17.244C16.5154 10.2346 17.4265 4.94708 19.7194 3.61999C22.1615 2.20653 27.5618 4.22181 33.2538 9.27471C33.6249 9.60495 33.9901 9.94188 34.3491 10.2853C32.2281 12.5623 30.1325 15.1546 28.1304 17.9793C24.6971 18.2974 21.4107 18.8083 18.3892 19.4928C18.203 18.7477 18.0357 17.9976 17.8873 17.244ZM49.3762 25.0181C48.6626 23.7857 47.9224 22.5687 47.1563 21.3681C49.4854 21.6626 51.7171 22.0535 53.8127 22.5313C53.1836 24.5474 52.3995 26.6551 51.4764 28.816C50.8017 27.5362 50.1015 26.27 49.3762 25.0181ZM36.5351 12.5139C37.9734 14.0719 39.414 15.8112 40.831 17.6985C37.9566 17.5628 35.0774 17.5622 32.203 17.6968C33.6213 15.8269 35.0742 14.0898 36.5351 12.5139ZM23.6115 25.0392C22.8953 26.281 22.2082 27.5393 21.5507 28.8132C20.6427 26.6599 19.8657 24.5426 19.2312 22.4979C21.314 22.0321 23.5351 21.6512 25.8494 21.3621C25.0748 22.5701 24.3286 23.7963 23.6115 25.0392ZM25.9159 43.6703C23.5248 43.4034 21.2704 43.0422 19.1882 42.5889C19.8326 40.5078 20.6268 38.3454 21.5544 36.1459C22.2145 37.4207 22.9045 38.6798 23.6238 39.9222C24.3635 41.1994 25.1294 42.4504 25.9159 43.6703ZM36.6212 52.5165C35.1429 50.9223 33.6687 49.1585 32.2289 47.2615C33.6268 47.3162 35.0517 47.3442 36.5 47.3442C37.9879 47.3442 39.4588 47.3108 40.9065 47.2464C39.485 49.1776 38.0498 50.944 36.6212 52.5165ZM51.5058 36.0336C52.4816 38.2573 53.304 40.4083 53.957 42.4538C51.8405 42.9367 49.5553 43.3256 47.1474 43.6144C47.919 42.3915 48.6662 41.1534 49.3885 39.9008C50.1229 38.6276 50.8288 37.3382 51.5058 36.0336ZM46.6872 38.3431C45.5814 40.2636 44.4135 42.1476 43.1852 43.9921C40.9603 44.1497 38.7305 44.2279 36.5 44.2267C34.2282 44.2267 32.0185 44.156 29.8906 44.0181C28.6303 42.1778 27.4401 40.2905 26.3225 38.3602C25.2101 36.4402 24.1714 34.4786 23.208 32.4797C24.169 30.4804 25.2048 28.5179 26.3134 26.5964L26.3131 26.5966C27.4212 24.6746 28.6019 22.7954 29.8527 20.963C32.0236 20.7988 34.2498 20.7133 36.4997 20.7133C38.7599 20.7133 40.9892 20.7997 43.1595 20.965C44.3977 22.7947 45.5709 24.6674 46.6769 26.5798C47.7892 28.4971 48.8387 30.45 49.8239 32.4355C48.8488 34.4413 47.8026 36.4118 46.6872 38.3431ZM53.1203 3.52706C55.5647 4.93653 56.5154 10.6203 54.9795 18.0739C54.8815 18.5495 54.7714 19.0338 54.6516 19.525C51.6227 18.826 48.334 18.3063 44.8907 17.9833C42.8849 15.1276 40.8064 12.5313 38.7199 10.2836C39.2668 9.75665 39.8266 9.24334 40.3989 8.74416C45.7884 4.05532 50.8254 2.20396 53.1203 3.52706ZM36.5 25.8882C40.1001 25.8882 43.0187 28.8061 43.0187 32.4053C43.0187 36.0045 40.1001 38.9224 36.5 38.9224C32.8999 38.9224 29.9813 36.0045 29.9813 32.4053C29.9813 28.8061 32.8999 25.8882 36.5 25.8882Z" fill="#00D8FF"/>
</g>
<defs>
<clipPath id="clip0_1918_442">
<rect width="73" height="65" fill="white"/>
</clipPath>
</defs>
</svg>
