<svg width="558" height="449" viewBox="0 0 558 449" fill="none" xmlns="http://www.w3.org/2000/svg">
<path d="M223.655 205.089C227.053 205.089 229.637 205.794 231.404 207.208C233.171 208.619 234.059 210.49 234.059 212.823C234.059 213.865 233.915 214.857 233.629 215.803C233.342 216.748 232.888 217.628 232.272 218.434C231.656 219.244 230.862 219.961 229.889 220.592C228.917 221.224 227.743 221.743 226.375 222.154C226.731 222.785 227.115 223.545 227.526 224.436C227.936 225.327 228.363 226.288 228.8 227.315C229.238 228.342 229.665 229.419 230.075 230.543C230.486 231.666 230.858 232.779 231.184 233.875H225.732C225.402 232.887 225.057 231.887 224.701 230.872C224.344 229.857 223.972 228.877 223.585 227.931C223.201 226.986 222.806 226.094 222.407 225.257C222.008 224.421 221.617 223.673 221.229 223.018C220.981 223.045 220.679 223.06 220.322 223.06H216.99L215.614 228.83C214.909 231.79 212.042 234.456 209 234.456L215.924 205.79C217.238 205.515 218.575 205.333 219.935 205.236C221.291 205.139 222.531 205.093 223.655 205.093V205.089ZM228.793 213.397C228.793 211.889 228.243 210.855 227.146 210.293C226.049 209.731 224.581 209.448 222.748 209.448C222.364 209.448 221.954 209.464 221.516 209.491C221.078 209.518 220.64 209.56 220.198 209.615L217.982 218.907H220.284C221.516 218.907 222.655 218.806 223.697 218.597C224.74 218.391 225.635 218.07 226.39 217.632C227.146 217.194 227.735 216.624 228.157 215.927C228.584 215.229 228.797 214.385 228.797 213.397H228.793Z" fill="white"/>
<path d="M238.615 233.895H233.814L238.817 213.138H243.618L238.615 233.895ZM242.188 211.003C241.475 211.003 240.851 210.79 240.324 210.367C239.793 209.945 239.53 209.31 239.53 208.461C239.53 207.481 239.867 206.675 240.541 206.039C241.215 205.404 241.99 205.086 242.862 205.086C243.575 205.086 244.203 205.303 244.745 205.741C245.288 206.179 245.559 206.818 245.559 207.667C245.559 208.647 245.214 209.445 244.528 210.069C243.839 210.689 243.06 211.003 242.188 211.003Z" fill="white"/>
<path d="M250.1 230.52C251.371 230.52 252.374 230.314 253.118 229.903C253.858 229.493 254.23 228.865 254.23 228.02C254.23 227.331 253.994 226.784 253.517 226.373C253.041 225.963 252.208 225.482 251.018 224.924C250.383 224.634 249.794 224.328 249.251 224.014C248.709 223.696 248.24 223.324 247.841 222.902C247.445 222.479 247.128 221.983 246.887 221.414C246.651 220.844 246.531 220.162 246.531 219.368C246.531 217.302 247.287 215.663 248.794 214.447C250.301 213.23 252.487 212.622 255.342 212.622C256.664 212.622 257.849 212.761 258.896 213.04C259.942 213.319 260.728 213.602 261.255 213.893L259.551 217.624C259.101 217.361 258.454 217.101 257.605 216.849C256.757 216.597 255.873 216.473 254.947 216.473C254.498 216.473 254.056 216.512 253.618 216.593C253.18 216.671 252.789 216.806 252.448 216.989C252.103 217.175 251.82 217.43 251.595 217.764C251.371 218.093 251.258 218.496 251.258 218.972C251.258 219.581 251.502 220.077 251.995 220.46C252.483 220.844 253.192 221.247 254.118 221.669C254.99 222.068 255.73 222.452 256.342 222.82C256.95 223.192 257.454 223.607 257.849 224.072C258.249 224.537 258.539 225.052 258.721 225.618C258.907 226.187 259 226.869 259 227.664C259 228.644 258.803 229.547 258.404 230.384C258.008 231.217 257.431 231.93 256.675 232.527C255.92 233.123 254.99 233.592 253.878 233.937C252.766 234.282 251.495 234.452 250.069 234.452C249.088 234.452 248.209 234.387 247.43 234.255C246.647 234.123 245.969 233.972 245.384 233.798C244.803 233.627 244.311 233.449 243.915 233.263C243.52 233.077 243.214 232.918 243.005 232.786L244.71 229.016C244.896 229.121 245.167 229.26 245.524 229.435C245.88 229.605 246.291 229.772 246.756 229.931C247.217 230.089 247.736 230.229 248.302 230.349C248.871 230.469 249.472 230.527 250.107 230.527L250.1 230.52Z" fill="white"/>
<path d="M265.752 233.895H260.951L265.954 213.138H270.755L265.752 233.895ZM269.325 211.003C268.612 211.003 267.988 210.79 267.461 210.367C266.93 209.945 266.667 209.31 266.667 208.461C266.667 207.481 267.004 206.675 267.678 206.039C268.352 205.404 269.127 205.086 269.999 205.086C270.712 205.086 271.34 205.303 271.882 205.741C272.425 206.179 272.696 206.818 272.696 207.667C272.696 208.647 272.351 209.445 271.665 210.069C270.975 210.689 270.197 211.003 269.325 211.003Z" fill="white"/>
<path d="M275.509 214.01C276.567 213.692 277.776 213.394 279.14 213.115C280.504 212.836 281.992 212.7 283.604 212.7C286.037 212.7 287.823 213.297 288.963 214.487C290.102 215.676 290.668 217.28 290.668 219.287C290.668 219.842 290.621 220.431 290.528 221.054C290.435 221.674 290.323 222.318 290.191 222.98L287.572 233.896H282.775L285.231 223.496C285.363 222.914 285.495 222.318 285.626 221.709C285.758 221.101 285.84 220.52 285.863 219.962C285.89 219.036 285.669 218.268 285.208 217.66C284.743 217.052 283.84 216.746 282.488 216.746C281.349 216.746 280.372 216.866 279.551 217.102L275.571 233.892H270.739L275.501 214.006L275.509 214.01Z" fill="white"/>
<path d="M300.633 237.58C303.578 235.495 304.008 233.825 304.353 232.263L304.473 231.709C303.942 231.973 303.306 232.221 302.566 232.446C301.826 232.67 301.043 232.783 300.226 232.783C297.897 232.783 296.173 232.155 295.045 230.896C293.921 229.64 293.36 227.966 293.36 225.874C293.36 223.967 293.689 222.208 294.352 220.596C295.014 218.984 295.944 217.586 297.149 216.408C298.354 215.23 299.8 214.311 301.497 213.649C303.19 212.986 305.069 212.657 307.131 212.657C308.134 212.657 309.216 212.769 310.366 212.994C311.517 213.219 312.556 213.583 313.482 214.087L309.274 231.709C308.902 233.271 308.433 234.654 307.863 235.855C307.294 237.061 306.546 238.064 305.62 238.87C304.694 239.676 303.551 240.292 302.187 240.715C300.823 241.137 299.176 241.35 297.246 241.35C295.843 241.35 294.58 241.199 293.457 240.893C292.333 240.587 291.345 240.211 290.5 239.761C290.5 239.761 297.378 239.881 300.633 237.576V237.58ZM301.408 228.892C302.121 228.892 302.853 228.761 303.605 228.493C304.356 228.23 304.984 227.897 305.484 227.501L308.045 216.904C307.437 216.772 306.84 216.706 306.259 216.706C305.042 216.706 303.934 216.931 302.942 217.38C301.95 217.83 301.098 218.438 300.381 219.205C299.668 219.972 299.11 220.868 298.715 221.883C298.319 222.902 298.118 223.995 298.118 225.157C298.118 226.319 298.37 227.234 298.87 227.897C299.373 228.559 300.214 228.888 301.404 228.888L301.408 228.892Z" fill="white"/>
<path d="M336.075 209.855C336.316 211.8 337.676 221.061 337.838 222.615C338.005 224.165 338.168 225.606 338.334 226.936C339.109 225.467 339.915 223.855 340.748 222.096C341.582 220.337 342.415 218.515 343.248 216.632C344.081 214.749 344.898 212.819 345.704 210.839C346.51 208.859 347.285 206.914 348.037 205.004H353.605C351.416 210.347 349.199 215.404 346.968 220.166C344.736 224.928 342.372 229.47 339.873 233.79H334.789C334.568 232.294 334.355 230.826 334.15 229.388C333.944 227.951 333.75 226.486 333.572 225.006C333.394 223.526 333.227 222.014 333.076 220.476C332.925 218.938 332.782 217.341 332.642 215.679C330.914 218.864 329.205 221.945 327.52 224.921C325.83 227.896 324.04 230.853 322.145 233.79H317.058C316.841 231.38 316.686 228.985 316.593 226.602C316.5 224.219 316.449 221.782 316.449 219.29C316.449 214.749 316.608 209.987 316.922 205H322.157C321.99 207.658 321.851 210.297 321.742 212.912C321.63 215.528 321.576 218.182 321.576 220.868V223.878C321.576 224.89 321.603 225.909 321.657 226.932C322.517 225.521 323.405 224.029 324.323 222.468C325.241 220.902 326.14 219.318 327.031 217.713C327.919 216.109 328.787 214.501 329.635 212.893C330.48 211.289 330.755 211.324 331.507 209.855H336.075Z" fill="white"/>
<path d="M367.699 225.835C367.621 226.126 367.54 226.603 367.463 227.265C367.385 227.928 367.342 228.548 367.342 229.129C367.342 229.896 367.408 230.644 367.54 231.372C367.672 232.101 367.885 232.833 368.176 233.573C368.176 233.573 364.622 233.992 363.134 232.186C362.472 232.767 361.658 233.291 360.693 233.756C359.728 234.217 358.636 234.449 357.419 234.449C356.202 234.449 355.11 234.244 354.222 233.833C353.335 233.422 352.614 232.853 352.06 232.128C351.506 231.4 351.095 230.547 350.828 229.567C350.564 228.586 350.433 227.529 350.433 226.393C350.433 224.464 350.777 222.662 351.463 220.996C352.153 219.329 353.11 217.888 354.342 216.671C355.575 215.455 357.035 214.494 358.729 213.792C360.422 213.091 362.274 212.742 364.285 212.742C365.316 212.742 366.354 212.827 367.401 213.002C368.447 213.172 369.497 213.498 370.555 213.974L367.695 225.843L367.699 225.835ZM365.091 216.865C364.587 216.76 364.018 216.706 363.382 216.706C362.189 216.706 361.092 216.966 360.085 217.481C359.077 217.996 358.209 218.686 357.485 219.546C356.756 220.407 356.195 221.391 355.795 222.503C355.396 223.615 355.199 224.777 355.199 225.994C355.199 226.603 355.253 227.172 355.358 227.699C355.462 228.23 355.64 228.691 355.892 229.086C356.144 229.482 356.481 229.799 356.904 230.04C357.326 230.276 357.868 230.396 358.531 230.396C359.376 230.396 360.124 230.218 360.775 229.861C361.422 229.505 362.026 229.02 362.58 228.412C362.607 227.722 362.666 227.075 362.759 226.467C362.852 225.859 362.975 225.25 363.134 224.642L365.087 216.861L365.091 216.865Z" fill="white"/>
<path d="M376.102 233.894C375.428 231.197 374.819 228.066 374.281 224.509C373.742 220.952 373.389 217.159 373.23 213.137H378.152C378.179 214.303 378.225 215.558 378.291 216.907C378.357 218.255 378.446 219.612 378.555 220.976C378.663 222.339 378.791 223.653 378.938 224.924C379.085 226.195 379.256 227.346 379.442 228.376C380.132 227.478 380.876 226.4 381.67 225.141C382.464 223.886 383.235 222.56 383.979 221.173C384.723 219.786 385.398 218.387 386.01 216.984C386.618 215.582 387.11 214.299 387.482 213.133H392.485C391.849 214.958 391.051 216.837 390.098 218.767C389.144 220.7 388.11 222.576 386.994 224.405C385.878 226.23 384.731 227.962 383.553 229.605C382.371 231.244 381.251 232.674 380.194 233.89H376.106L376.102 233.894Z" fill="white"/>
<path d="M391.939 226.393C391.939 224.622 392.222 222.906 392.792 221.251C393.362 219.597 394.179 218.128 395.252 216.846C396.326 215.563 397.612 214.536 399.123 213.769C400.631 213.002 402.324 212.618 404.203 212.618C406.214 212.618 407.776 213.134 408.888 214.164C410 215.195 410.554 216.52 410.554 218.132C410.554 219.744 410.144 221.151 409.326 222.181C408.504 223.212 407.439 224.022 406.129 224.603C404.819 225.184 403.339 225.583 401.685 225.793C400.03 226.006 398.356 226.138 396.663 226.188C396.636 226.242 396.624 226.293 396.624 226.347V226.742C396.624 229.148 397.798 231.012 400.685 231.981C403.328 232.868 406.986 233.132 406.986 233.132C406.35 233.422 405.451 233.713 404.289 234.003C403.122 234.294 401.801 234.441 400.321 234.441C398.841 234.441 397.57 234.228 396.512 233.806C395.454 233.383 394.586 232.802 393.912 232.058C393.238 231.318 392.742 230.466 392.424 229.497C392.106 228.532 391.947 227.494 391.947 226.382L391.939 226.393ZM403.49 216.551C402.696 216.551 401.944 216.71 401.227 217.028C400.514 217.345 399.879 217.783 399.321 218.337C398.767 218.892 398.283 219.546 397.872 220.302C397.461 221.058 397.163 221.871 396.977 222.743C400.15 222.639 402.46 222.255 403.901 221.592C405.343 220.93 406.063 219.938 406.063 218.616C406.063 218.089 405.873 217.613 405.49 217.187C405.106 216.764 404.44 216.551 403.487 216.551H403.49Z" fill="white"/>
<path d="M170.356 222.607C168.473 217.852 168.042 212.97 168.848 208.673C163.334 216.442 165.067 227.222 172.777 232.864C175.924 235.165 179.578 236.258 183.197 236.231C177.85 234.131 172.983 229.248 170.352 222.607H170.356Z" fill="white"/>
<path d="M164.229 229.888C159.052 218.352 162.76 205.453 172.513 201.074C176.276 199.385 180.387 199.214 184.316 200.299C169.878 193.755 154.177 197.246 149.202 208.126C144.215 219.034 151.899 233.243 166.368 239.858C170.087 241.559 173.893 242.589 177.577 243C172.06 240.873 167.088 236.254 164.229 229.884V229.888Z" fill="white"/>
<path d="M174.149 205.186C176.792 205.5 178.822 207.503 179.283 209.987C179.725 212.498 181.763 214.528 184.425 214.842C187.676 215.226 190.625 212.901 191.009 209.65C191.319 207.015 189.854 204.582 187.556 203.547C187.269 203.423 186.983 203.307 186.688 203.198C185.154 202.725 183.526 202.489 181.841 202.458C178.291 202.392 174.924 203.4 172.2 205.256C172.719 205.174 173.599 205.12 174.145 205.186H174.149Z" fill="white"/>
<path d="M181.902 224.11C176.497 220.158 173.343 214.392 172.85 208.673C171.269 214.229 172.564 220.545 176.818 225.257C182.894 231.984 192.845 233.038 199.773 227.962C194.081 229.388 187.443 228.163 181.902 224.11Z" fill="white"/>
<path d="M147.118 207.065C142.041 211.006 139.228 216.663 140.185 222.371C141.34 229.241 148.493 234.844 155.363 236.231C147.168 230.349 140.36 219.197 147.118 207.065Z" fill="white"/>
</svg>
