<svg width="70" height="70" viewBox="0 0 70 70" fill="none" xmlns="http://www.w3.org/2000/svg">
<g clip-path="url(#clip0_2012_341)">
<g clip-path="url(#clip1_2012_341)">
<path d="M61.0937 39.0823C58.6237 39.0952 56.4768 39.6985 54.6793 40.5903C54.0195 39.2656 53.36 38.0855 53.2438 37.2198C53.1143 36.2101 52.9592 35.5937 53.1143 34.3871C53.2696 33.1805 53.9679 31.4624 53.9549 31.3313C53.9421 31.2002 53.7996 30.5837 52.3771 30.5708C50.9546 30.5576 49.726 30.8462 49.5837 31.2264C49.4414 31.6067 49.1699 32.4723 48.9888 33.3639C48.743 34.6756 46.1438 39.3573 44.6567 41.8098C44.178 40.8527 43.7642 40.0132 43.6735 39.3444C43.5442 38.3347 43.3889 37.7182 43.5442 36.5117C43.6996 35.3051 44.3979 33.5872 44.3849 33.4559C44.3718 33.3248 44.2296 32.7083 42.8071 32.6954C41.3843 32.6821 40.1557 32.9707 40.0137 33.351C39.8714 33.7315 39.7161 34.6231 39.4188 35.4887C39.1212 36.3544 35.6682 44.1709 34.763 46.1903C34.3972 47.0077 34.0134 47.8166 33.612 48.6166C33.612 48.6166 33.599 48.656 33.5601 48.7216C33.434 48.9724 33.3048 49.2216 33.1724 49.4691V49.4821C32.9783 49.8364 32.7714 50.1641 32.6679 50.1641C32.5903 50.1641 32.448 49.2199 32.6937 47.9346C33.211 45.22 34.4396 40.997 34.4268 40.8527C34.4268 40.774 34.6595 40.0396 33.625 39.6591C32.6161 39.2789 32.2541 39.9083 32.1634 39.9083C32.073 39.9083 32.0081 40.1313 32.0081 40.1313C32.0081 40.1313 33.1336 35.3838 29.8615 35.3838C27.8183 35.3838 24.9988 37.6527 23.6021 39.6985C22.0144 40.5747 20.4279 41.4534 18.8429 42.3347C18.0802 42.7675 17.2912 43.2003 16.554 43.6067C16.5021 43.5544 16.4505 43.4886 16.3987 43.4363C12.4412 39.1478 5.12159 36.1182 5.43194 30.361C5.54842 28.2626 6.25953 22.7543 19.4897 16.0659C30.3787 10.6232 39.0438 12.1312 40.5439 15.4756C42.6906 20.2495 35.9012 29.1151 24.6496 30.4001C20.3561 30.8855 18.1057 29.2067 17.5369 28.5773C16.942 27.9214 16.8513 27.8821 16.6314 28.0134C16.2694 28.2103 16.5021 28.8003 16.6314 29.1412C16.9678 30.0328 18.3514 31.6066 20.6922 32.3806C22.7615 33.0624 27.7922 33.4429 33.8835 31.056C40.699 28.3804 46.0273 20.9445 44.4625 14.7151C42.8975 8.39368 32.5514 6.3085 22.7615 9.83621C16.942 11.9349 10.6307 15.2396 6.09146 19.5413C0.698512 24.6558 -0.155152 29.1018 0.194024 30.9643C1.44873 37.5739 10.4369 41.8756 14.0321 45.0625C13.851 45.1674 13.6826 45.2594 13.5406 45.3381C11.7429 46.2429 4.88862 49.8755 3.18157 53.7182C1.24183 58.0723 3.4922 61.1939 4.97931 61.6132C9.59625 62.9117 14.3424 60.5774 16.8901 56.7214C19.4378 52.8658 19.1275 47.8559 17.9507 45.5609C17.9376 45.5347 17.9249 45.5083 17.8988 45.4821C18.3645 45.2068 18.8429 44.9182 19.3086 44.6429C20.1644 44.1298 21.0311 43.6356 21.9081 43.1607C21.4682 44.3805 21.1448 45.8362 20.9898 47.9346C20.7957 50.4003 21.7913 53.6001 23.0976 54.859C23.6798 55.4102 24.3651 55.4232 24.805 55.4232C26.3309 55.4232 27.0165 54.1379 27.7795 52.6166C28.7105 50.7544 29.5511 48.5905 29.5511 48.5905C29.5511 48.5905 28.5036 54.4396 31.3489 54.4396C32.3834 54.4396 33.4309 53.0756 33.8966 52.3806V52.3936C33.8966 52.3936 33.9224 52.3542 33.9742 52.2625C34.0777 52.0921 34.1423 51.9869 34.1423 51.9869V51.961C34.5561 51.2264 35.4874 49.5608 36.8711 46.7936C38.6558 43.2265 40.3759 38.7676 40.3759 38.7676C40.3759 38.7676 40.5312 39.856 41.0612 41.6658C41.3718 42.7281 42.018 43.8953 42.5355 45.0231C42.1217 45.6135 41.863 45.9411 41.863 45.9411L41.876 45.9543C41.5396 46.4001 41.1777 46.8853 40.7766 47.3578C39.3669 49.0624 37.6859 51.0168 37.4529 51.5805C37.1811 52.2493 37.246 52.7347 37.7636 53.1282C38.1385 53.4167 38.8108 53.4558 39.4964 53.4167C40.7639 53.3248 41.6561 53.0101 42.0957 52.8135C42.7813 52.5643 43.5831 52.1837 44.333 51.6198C45.717 50.5837 46.5573 49.1018 46.4799 47.148C46.4411 46.0725 46.0919 44.997 45.6651 43.987C45.7946 43.8036 45.9108 43.62 46.0403 43.4363C48.2258 40.1969 49.9201 36.6427 49.9201 36.6427C49.9201 36.6427 50.0754 37.7312 50.6054 39.5413C50.8642 40.4593 51.3945 41.456 51.8598 42.4263C49.8036 44.1183 48.5362 46.0854 48.0835 47.3707C47.269 49.7577 47.9024 50.8329 49.1053 51.0821C49.6483 51.2002 50.4243 50.9378 50.9934 50.6886C51.7176 50.4526 52.5712 50.0462 53.3861 49.4427C54.77 48.4068 56.1018 46.964 56.0242 45.0102C55.9853 44.1183 55.7526 43.2394 55.4292 42.387C57.1751 41.6529 59.4255 41.2462 62.2963 41.5871C68.4525 42.3214 69.6681 46.2165 69.4351 47.8561C69.2024 49.4953 67.9092 50.3871 67.4826 50.6625C67.0555 50.9381 66.9135 51.0298 66.9523 51.2264C67.0039 51.5149 67.2108 51.502 67.573 51.4494C68.0775 51.3577 70.8063 50.1247 70.9225 47.1083C71.1166 43.2526 67.4954 39.0429 61.0937 39.0823ZM13.6053 55.3183C11.5618 57.5739 8.7168 58.4264 7.48816 57.7052C6.16912 56.9312 6.68636 53.6001 9.19522 51.2134C10.7212 49.7577 12.687 48.4066 13.9933 47.5805C14.2906 47.3969 14.7304 47.1347 15.2607 46.8068C15.3511 46.7542 15.403 46.7281 15.403 46.7281L15.7133 46.5312C16.6314 49.9411 15.7522 52.9445 13.6053 55.3183ZM28.4778 45.0625C27.7664 46.82 26.2793 51.3183 25.3741 51.0691C24.5981 50.8593 24.1194 47.4495 25.2188 44.079C25.7748 42.387 26.9516 40.3673 27.6372 39.5807C28.7493 38.3215 29.978 37.9016 30.2753 38.4135C30.6505 39.0823 28.9174 43.9608 28.4778 45.0625ZM40.7508 51.0166C40.4532 51.1741 40.169 51.279 40.0394 51.2002C39.949 51.1476 40.169 50.9378 40.169 50.9378C40.169 50.9378 41.7079 49.2593 42.3156 48.4985C42.6651 48.0527 43.0786 47.5282 43.5184 46.9379V47.1083C43.5184 49.115 41.6042 50.4659 40.7506 51.0166M50.2171 48.8265C49.9972 48.669 50.036 48.1444 50.7732 46.505C51.0578 45.8624 51.73 44.7871 52.8813 43.751C53.0105 44.1707 53.1012 44.5773 53.0882 44.9576C53.0752 47.4888 51.2907 48.433 50.2171 48.8265Z" fill="#CD6799"/>
</g>
</g>
<defs>
<clipPath id="clip0_2012_341">
<rect width="70" height="70" fill="white"/>
</clipPath>
<clipPath id="clip1_2012_341">
<rect width="71" height="54" fill="white" transform="translate(0 8)"/>
</clipPath>
</defs>
</svg>
