<svg width="70" height="70" viewBox="0 0 70 70" fill="none" xmlns="http://www.w3.org/2000/svg">
<rect width="70" height="70" rx="5" fill="#090F2C"/>
<path d="M30.2875 44.8478C30.2875 38.9156 35.0964 34.1066 41.0286 34.1066C46.9607 34.1066 51.7697 38.9156 51.7697 44.8478C51.7697 50.7799 46.9607 55.5889 41.0286 55.5889C35.0964 55.5889 30.2875 50.7799 30.2875 44.8478ZM48.9903 44.8478C48.9903 40.4506 45.4257 36.886 41.0286 36.886C36.6314 36.886 33.0668 40.4506 33.0668 44.8478C33.0668 49.2449 36.6314 52.8095 41.0286 52.8095C45.4257 52.8095 48.9903 49.2449 48.9903 44.8478Z" fill="#3772FF"/>
<rect x="42.329" y="57.5044" width="2.73659" height="2.73659" transform="rotate(-180 42.329 57.5044)" fill="#3772FF"/>
<rect x="43.0128" y="58.1885" width="4.10488" height="4.10488" transform="rotate(-180 43.0128 58.1885)" fill="#3772FF"/>
<rect x="27.8936" y="47.1733" width="4.10488" height="4.10488" transform="rotate(-90 27.8936 47.1733)" fill="#3772FF"/>
<rect x="30.3375" y="37.4009" width="4.10488" height="4.10488" transform="rotate(-45 30.3375 37.4009)" fill="#3772FF"/>
<rect x="48.8166" y="34.4985" width="4.10488" height="4.10488" transform="rotate(45 48.8166 34.4985)" fill="#3772FF"/>
<rect x="43.0128" y="36.1592" width="4.10488" height="4.10488" transform="rotate(-180 43.0128 36.1592)" fill="#3772FF"/>
<rect x="49.9227" y="47.1738" width="4.10488" height="4.10488" transform="rotate(-90 49.9227 47.1738)" fill="#3772FF"/>
<rect x="45.9148" y="52.9785" width="4.10488" height="4.10488" transform="rotate(-45 45.9148 52.9785)" fill="#3772FF"/>
<rect x="33.2398" y="50.0762" width="4.10488" height="4.10488" transform="rotate(45 33.2398 50.0762)" fill="#3772FF"/>
<path d="M17.5756 39.7556C16.1419 37.2724 16.9927 34.0971 19.4759 32.6633C21.9592 31.2296 25.1345 32.0805 26.5682 34.5637C28.002 37.047 27.1511 40.2223 24.6679 41.656C22.1846 43.0897 19.0093 42.2389 17.5756 39.7556ZM25.4048 35.2354C24.3421 33.3947 21.9884 32.7641 20.1477 33.8268C18.307 34.8895 17.6763 37.2432 18.739 39.0839C19.8018 40.9246 22.1554 41.5553 23.9961 40.4926C25.8368 39.4298 26.4675 37.0761 25.4048 35.2354Z" fill="#FF8811"/>
<rect x="25.6745" y="42.144" width="1.32278" height="1.32278" transform="rotate(150 25.6745 42.144)" fill="#FF8811"/>
<rect x="26.1272" y="42.2646" width="1.98417" height="1.98417" transform="rotate(150 26.1272 42.2646)" fill="#FF8811"/>
<rect x="17.136" y="41.3081" width="1.98417" height="1.98417" transform="rotate(-120 17.136 41.3081)" fill="#FF8811"/>
<rect x="15.7968" y="36.627" width="1.98417" height="1.98417" transform="rotate(-75 15.7968 36.627)" fill="#FF8811"/>
<rect x="22.8314" y="30.9448" width="1.98417" height="1.98417" transform="rotate(15 22.8314 30.9448)" fill="#FF8811"/>
<rect x="20.8031" y="33.043" width="1.98417" height="1.98417" transform="rotate(150 20.8031 33.043)" fill="#FF8811"/>
<rect x="26.3578" y="35.9839" width="1.98417" height="1.98417" transform="rotate(-120 26.3578 35.9839)" fill="#FF8811"/>
<rect x="26.0829" y="39.3823" width="1.98417" height="1.98417" transform="rotate(-75 26.0829 39.3823)" fill="#FF8811"/>
<rect x="20.0751" y="41.2305" width="1.98417" height="1.98417" transform="rotate(15 20.0751 41.2305)" fill="#FF8811"/>
<path d="M21.2144 17.2757C23.1396 13.9413 27.4033 12.7988 30.7377 14.724C34.0721 16.6491 35.2145 20.9128 33.2894 24.2472C31.3643 27.5816 27.1006 28.724 23.7662 26.7989C20.4318 24.8738 19.2893 20.6101 21.2144 17.2757ZM31.7272 23.3452C33.1542 20.8736 32.3073 17.7132 29.8357 16.2862C27.3641 14.8592 24.2037 15.706 22.7767 18.1777C21.3497 20.6493 22.1965 23.8097 24.6681 25.2367C27.1397 26.6637 30.3002 25.8168 31.7272 23.3452Z" fill="white"/>
<rect x="23.8749" y="28.2979" width="1.77618" height="1.77618" transform="rotate(-150 23.8749 28.2979)" fill="white"/>
<rect x="24.0371" y="28.9043" width="2.66426" height="2.66426" transform="rotate(-150 24.0371 28.9043)" fill="white"/>
<rect x="19.1133" y="17.8062" width="2.66426" height="2.66426" transform="rotate(-60 19.1133 17.8062)" fill="white"/>
<rect x="23.6586" y="13.1069" width="2.66426" height="2.66426" transform="rotate(-15 23.6586 13.1069)" fill="white"/>
<rect x="34.9882" y="17.4722" width="2.66426" height="2.66426" transform="rotate(75 34.9882 17.4722)" fill="white"/>
<rect x="31.1863" y="16.5215" width="2.66426" height="2.66426" transform="rotate(-150 31.1863 16.5215)" fill="white"/>
<rect x="31.4957" y="24.9561" width="2.66426" height="2.66426" transform="rotate(-60 31.4957 24.9561)" fill="white"/>
<rect x="27.3594" y="26.9175" width="2.66426" height="2.66426" transform="rotate(-15 27.3594 26.9175)" fill="white"/>
<rect x="21.1775" y="21.1733" width="2.66426" height="2.66426" transform="rotate(75 21.1775 21.1733)" fill="white"/>
</svg>
