<svg width="70" height="70" viewBox="0 0 70 70" fill="none" xmlns="http://www.w3.org/2000/svg">
<path d="M35 14C25.6665 14 19.8352 18.6648 17.5 27.9984C20.9989 23.333 25.0835 21.5835 29.7489 22.75C32.4127 23.4139 34.3164 25.3455 36.4246 27.4859C39.8557 30.9679 43.8271 34.9989 52.5 34.9989C61.833 34.9989 67.6648 30.3335 70 20.9978C66.5005 25.6659 62.4165 27.4154 57.7505 26.2489C55.0873 25.5845 53.1858 23.6534 51.0748 21.513C47.6459 18.031 43.6756 14 35 14ZM17.5 34.9989C8.16703 34.9989 2.33516 39.6643 0 49C3.49891 44.3319 7.58297 42.5824 12.2489 43.7489C14.9127 44.4134 16.8164 46.3444 18.9246 48.4848C22.3557 51.9668 26.3271 55.9978 35 55.9978C44.333 55.9978 50.1648 51.333 52.5 41.9995C49.0005 46.6648 44.9165 48.4143 40.2505 47.2478C37.5873 46.5839 35.6858 44.6523 33.5748 42.5119C30.1459 39.0299 26.1756 34.9989 17.5 34.9989Z" fill="#38BDF8"/>
</svg>
