<svg width="886" height="934" viewBox="0 0 886 934" fill="none" xmlns="http://www.w3.org/2000/svg">
<circle cx="241.839" cy="312.861" r="8" transform="rotate(-52.6001 241.839 312.861)" fill="#192353"/>
<circle cx="356.752" cy="400.719" r="8" transform="rotate(-52.6001 356.752 400.719)" fill="#192353"/>
<circle cx="332.244" cy="313.697" r="8" transform="rotate(-52.6001 332.244 313.697)" fill="#192353"/>
<circle cx="266.349" cy="399.883" r="8" transform="rotate(-52.6001 266.349 399.883)" fill="#192353"/>
<circle cx="422.646" cy="314.534" r="8" transform="rotate(-52.6001 422.646 314.534)" fill="#192353"/>
<circle cx="290.861" cy="486.902" r="8" transform="rotate(-52.6001 290.861 486.902)" fill="#192353"/>
<circle cx="381.263" cy="487.738" r="8" transform="rotate(-52.6001 381.263 487.738)" fill="#192353"/>
<circle cx="471.665" cy="488.575" r="8" transform="rotate(-52.6001 471.665 488.575)" fill="#192353"/>
<circle cx="537.558" cy="402.39" r="8" transform="rotate(-52.6001 537.558 402.39)" fill="#192353"/>
<circle cx="405.773" cy="574.76" r="8" transform="rotate(-52.6001 405.773 574.76)" fill="#192353"/>
<circle cx="339.878" cy="660.944" r="8" transform="rotate(-52.6001 339.878 660.944)" fill="#192353"/>
<circle cx="430.283" cy="661.781" r="8" transform="rotate(-52.6001 430.283 661.781)" fill="#192353"/>
<circle cx="496.175" cy="575.594" r="8" transform="rotate(-52.6001 496.175 575.594)" fill="#192353"/>
<circle cx="562.068" cy="489.412" r="8" transform="rotate(-52.6001 562.068 489.412)" fill="#192353"/>
<circle cx="627.961" cy="403.226" r="8" transform="rotate(-52.6001 627.961 403.226)" fill="#192353"/>
<circle cx="693.853" cy="317.044" r="8" transform="rotate(-52.6001 693.853 317.044)" fill="#192353"/>
<circle cx="364.391" cy="747.965" r="8" transform="rotate(-52.6001 364.391 747.965)" fill="#192353"/>
<circle cx="454.793" cy="748.799" r="8" transform="rotate(-52.6001 454.793 748.799)" fill="#192353"/>
<circle cx="520.685" cy="662.617" r="8" transform="rotate(-52.6001 520.685 662.617)" fill="#192353"/>
<circle cx="586.579" cy="576.431" r="8" transform="rotate(-52.6001 586.579 576.431)" fill="#192353"/>
<circle cx="652.471" cy="490.248" r="8" transform="rotate(-52.6001 652.471 490.248)" fill="#192353"/>
<circle cx="718.362" cy="404.064" r="8" transform="rotate(-52.6001 718.362 404.064)" fill="#192353"/>
<circle cx="784.255" cy="317.878" r="8" transform="rotate(-52.6001 784.255 317.878)" fill="#192353"/>
<circle cx="388.9" cy="834.986" r="8" transform="rotate(-52.6001 388.9 834.986)" fill="#192353"/>
<circle cx="479.302" cy="835.821" r="8" transform="rotate(-52.6001 479.302 835.821)" fill="#192353"/>
<circle cx="545.194" cy="749.636" r="8" transform="rotate(-52.6001 545.194 749.636)" fill="#192353"/>
<circle cx="611.088" cy="663.453" r="8" transform="rotate(-52.6001 611.088 663.453)" fill="#192353"/>
<circle cx="676.98" cy="577.268" r="8" transform="rotate(-52.6001 676.98 577.268)" fill="#192353"/>
<circle cx="742.874" cy="491.084" r="8" transform="rotate(-52.6001 742.874 491.084)" fill="#192353"/>
<circle cx="808.765" cy="404.9" r="8" transform="rotate(-52.6001 808.765 404.9)" fill="#192353"/>
<circle cx="874.659" cy="318.714" r="8" transform="rotate(-52.6001 874.659 318.714)" fill="#192353"/>
<circle cx="413.41" cy="922.008" r="8" transform="rotate(-52.6001 413.41 922.008)" fill="#192353"/>
<circle cx="603.45" cy="316.207" r="8" transform="rotate(-52.6001 603.45 316.207)" fill="#192353"/>
<circle cx="315.371" cy="573.924" r="8" transform="rotate(-52.6001 315.371 573.924)" fill="#192353"/>
<circle cx="513.049" cy="315.37" r="8" transform="rotate(-52.6001 513.049 315.37)" fill="#192353"/>
<circle cx="447.156" cy="401.555" r="8" transform="rotate(-52.6001 447.156 401.555)" fill="#192353"/>
</svg>
