<svg width="430" height="860" viewBox="0 0 430 860" fill="none" xmlns="http://www.w3.org/2000/svg">
<circle cx="15.6572" cy="488.911" r="8" transform="rotate(-52.6001 15.6572 488.911)" fill="#192353"/>
<circle cx="81.5507" cy="402.726" r="8" transform="rotate(-52.6001 81.5507 402.726)" fill="#192353"/>
<circle cx="40.1684" cy="575.93" r="8" transform="rotate(-52.6001 40.1684 575.93)" fill="#192353"/>
<circle cx="106.061" cy="489.748" r="8" transform="rotate(-52.6001 106.061 489.748)" fill="#192353"/>
<circle cx="171.954" cy="403.562" r="8" transform="rotate(-52.6001 171.954 403.562)" fill="#192353"/>
<circle cx="237.846" cy="317.38" r="8" transform="rotate(-52.6001 237.846 317.38)" fill="#192353"/>
<circle cx="-1.2139" cy="749.135" r="8" transform="rotate(-52.6001 -1.2139 749.135)" fill="#192353"/>
<circle cx="64.6782" cy="662.953" r="8" transform="rotate(-52.6001 64.6782 662.953)" fill="#192353"/>
<circle cx="130.572" cy="576.767" r="8" transform="rotate(-52.6001 130.572 576.767)" fill="#192353"/>
<circle cx="196.464" cy="490.584" r="8" transform="rotate(-52.6001 196.464 490.584)" fill="#192353"/>
<circle cx="262.355" cy="404.4" r="8" transform="rotate(-52.6001 262.355 404.4)" fill="#192353"/>
<circle cx="328.248" cy="318.214" r="8" transform="rotate(-52.6001 328.248 318.214)" fill="#192353"/>
<circle cx="23.2954" cy="836.157" r="8" transform="rotate(-52.6001 23.2954 836.157)" fill="#192353"/>
<circle cx="89.187" cy="749.973" r="8" transform="rotate(-52.6001 89.187 749.973)" fill="#192353"/>
<circle cx="155.081" cy="663.789" r="8" transform="rotate(-52.6001 155.081 663.789)" fill="#192353"/>
<circle cx="220.972" cy="577.604" r="8" transform="rotate(-52.6001 220.972 577.604)" fill="#192353"/>
<circle cx="286.867" cy="491.42" r="8" transform="rotate(-52.6001 286.867 491.42)" fill="#192353"/>
<circle cx="352.758" cy="405.236" r="8" transform="rotate(-52.6001 352.758 405.236)" fill="#192353"/>
<circle cx="418.652" cy="319.05" r="8" transform="rotate(-52.6001 418.652 319.05)" fill="#192353"/>
<circle cx="147.442" cy="316.543" r="8" transform="rotate(-52.6001 147.442 316.543)" fill="#192353"/>
<circle cx="57.042" cy="315.706" r="8" transform="rotate(-52.6001 57.042 315.706)" fill="#192353"/>
<circle cx="-8.8516" cy="401.891" r="8" transform="rotate(-52.6001 -8.8516 401.891)" fill="#192353"/>
</svg>
