<svg width="346" height="383" viewBox="0 0 346 383" fill="none" xmlns="http://www.w3.org/2000/svg">
<circle cx="85.3843" cy="241.434" r="7.19569" transform="rotate(-120 85.3843 241.434)" fill="white"/>
<circle cx="135.238" cy="212.652" r="7.19569" transform="rotate(-120 135.238 212.652)" fill="white"/>
<circle cx="99.5176" cy="208.348" r="7.19569" transform="rotate(-120 99.5176 208.348)" fill="white"/>
<circle cx="121.105" cy="245.738" r="7.19569" transform="rotate(-120 121.105 245.738)" fill="white"/>
<circle cx="113.651" cy="175.261" r="7.19569" transform="rotate(-120 113.651 175.261)" fill="white"/>
<circle cx="156.825" cy="250.041" r="7.19569" transform="rotate(-120 156.825 250.041)" fill="white"/>
<circle cx="170.958" cy="216.955" r="7.19569" transform="rotate(-120 170.958 216.955)" fill="white"/>
<circle cx="185.091" cy="183.869" r="7.19569" transform="rotate(-120 185.091 183.869)" fill="white"/>
<circle cx="163.504" cy="146.479" r="7.19569" transform="rotate(-120 163.504 146.479)" fill="white"/>
<circle cx="206.679" cy="221.259" r="7.19569" transform="rotate(-120 206.679 221.259)" fill="white"/>
<circle cx="228.265" cy="258.649" r="7.19569" transform="rotate(-120 228.265 258.649)" fill="white"/>
<circle cx="242.398" cy="225.563" r="7.19569" transform="rotate(-120 242.398 225.563)" fill="white"/>
<circle cx="220.811" cy="188.172" r="7.19569" transform="rotate(-120 220.811 188.172)" fill="white"/>
<circle cx="199.225" cy="150.783" r="7.19569" transform="rotate(-120 199.225 150.783)" fill="white"/>
<circle cx="177.637" cy="113.392" r="7.19569" transform="rotate(-120 177.637 113.392)" fill="white"/>
<circle cx="156.05" cy="76.0028" r="7.19569" transform="rotate(-120 156.05 76.0028)" fill="white"/>
<circle cx="263.986" cy="262.952" r="7.19569" transform="rotate(-120 263.986 262.952)" fill="white"/>
<circle cx="278.118" cy="229.865" r="7.19569" transform="rotate(-120 278.118 229.865)" fill="white"/>
<circle cx="256.532" cy="192.476" r="7.19569" transform="rotate(-120 256.532 192.476)" fill="white"/>
<circle cx="234.944" cy="155.086" r="7.19569" transform="rotate(-120 234.944 155.086)" fill="white"/>
<circle cx="213.357" cy="117.696" r="7.19569" transform="rotate(-120 213.357 117.696)" fill="white"/>
<circle cx="191.77" cy="80.3066" r="7.19569" transform="rotate(-120 191.77 80.3066)" fill="white"/>
<circle cx="170.183" cy="42.9162" r="7.19569" transform="rotate(-120 170.183 42.9162)" fill="white"/>
<circle cx="299.706" cy="267.256" r="7.19569" transform="rotate(-120 299.706 267.256)" fill="white"/>
<circle cx="313.839" cy="234.169" r="7.19569" transform="rotate(-120 313.839 234.169)" fill="white"/>
<circle cx="292.251" cy="196.78" r="7.19569" transform="rotate(-120 292.251 196.78)" fill="white"/>
<circle cx="270.665" cy="159.389" r="7.19569" transform="rotate(-120 270.665 159.389)" fill="white"/>
<circle cx="249.077" cy="122" r="7.19569" transform="rotate(-120 249.077 122)" fill="white"/>
<circle cx="227.491" cy="84.6096" r="7.19569" transform="rotate(-120 227.491 84.6096)" fill="white"/>
<circle cx="205.903" cy="47.2201" r="7.19569" transform="rotate(-120 205.903 47.2201)" fill="white"/>
<circle cx="184.316" cy="9.82968" r="7.19569" transform="rotate(-120 184.316 9.82968)" fill="white"/>
<circle cx="335.426" cy="271.56" r="7.19569" transform="rotate(-120 335.426 271.56)" fill="white"/>
<circle cx="141.917" cy="109.089" r="7.19569" transform="rotate(-120 141.917 109.089)" fill="white"/>
<circle cx="192.545" cy="254.345" r="7.19569" transform="rotate(-120 192.545 254.345)" fill="white"/>
<circle cx="127.784" cy="142.175" r="7.19569" transform="rotate(-120 127.784 142.175)" fill="white"/>
<circle cx="149.372" cy="179.565" r="7.19569" transform="rotate(-120 149.372 179.565)" fill="white"/>
</svg>
