<svg width="70" height="70" viewBox="0 0 70 70" fill="none" xmlns="http://www.w3.org/2000/svg">
<path d="M9.26 35C9.26 31.28 10.07 27.74 11.48 24.5L23.78 58.16C19.4253 56.0576 15.7524 52.7687 13.1838 48.6716C10.6152 44.5745 9.25509 39.8357 9.26 35ZM52.37 33.71C52.37 35.9 51.5 38.45 50.42 42.02L47.84 50.6L38.54 23L41.48 22.7C42.89 22.52 42.71 20.48 41.33 20.57C41.33 20.57 37.16 20.9 34.46 20.9L27.68 20.57C26.3 20.48 26.15 22.61 27.5 22.7L30.23 23L34.25 33.92L28.61 50.81L19.22 23L22.19 22.7C23.57 22.52 23.39 20.48 22.01 20.57C22.01 20.57 17.84 20.9 15.14 20.9L13.49 20.87C18.11 13.88 26 9.26 35 9.26C41.69 9.26 47.81 11.84 52.37 16.01H52.04C49.52 16.01 47.72 18.2 47.72 20.57C47.72 22.7 48.95 24.5 50.24 26.6C51.23 28.31 52.37 30.5 52.37 33.71ZM35.45 37.25L43.37 58.91L43.55 59.27C40.88 60.23 38 60.74 35 60.74C32.48 60.74 30.05 60.38 27.74 59.69L35.45 37.25ZM57.59 22.64C59.6642 26.4289 60.7477 30.6805 60.74 35C60.74 44.48 55.58 52.79 47.93 57.23L55.79 34.52C57.26 30.86 57.77 27.92 57.77 25.31L57.59 22.64ZM35 5C38.9397 5 42.8407 5.77597 46.4805 7.28361C50.1203 8.79126 53.4274 11.001 56.2132 13.7868C58.999 16.5726 61.2087 19.8797 62.7164 23.5195C64.224 27.1593 65 31.0603 65 35C65 42.9565 61.8393 50.5871 56.2132 56.2132C50.5871 61.8393 42.9565 65 35 65C31.0603 65 27.1593 64.224 23.5195 62.7164C19.8797 61.2087 16.5726 58.999 13.7868 56.2132C8.16071 50.5871 5 42.9565 5 35C5 27.0435 8.16071 19.4129 13.7868 13.7868C19.4129 8.16071 27.0435 5 35 5ZM35 63.62C50.78 63.62 63.62 50.78 63.62 35C63.62 19.22 50.78 6.38 35 6.38C19.22 6.38 6.38 19.22 6.38 35C6.38 50.78 19.22 63.62 35 63.62Z" fill="#00769D"/>
</svg>
